# 3ds Max Wavefront OBJ Exporter v0.97b - (c)2007 guruware
# File Created: 18.06.2016 19:16:02

mtllib Crystal.mtl

#
# object Sparks
#

v  -17.1402 17.1159 26.2471
v  -12.1769 9.9075 19.5270
v  -11.9728 11.9529 18.3268
v  -7.5216 5.1418 12.4367
v  -7.3072 7.2912 11.1755
v  -1.4749 -0.1834 2.8859
v  -1.3255 1.3145 2.0069
v  -0.0049 -0.0049 -0.0172
v  -1.1761 2.8125 1.1280
v  -7.0928 9.4406 9.9143
v  -11.7688 13.9983 17.1266
v  29.2771 -9.6385 18.0162
v  19.8163 -5.2880 14.3663
v  20.4415 -6.7304 12.5790
v  11.8068 -2.5889 9.5479
v  12.4637 -4.1045 7.6696
v  1.7778 0.3183 2.6845
v  2.2356 -0.7380 1.3755
v  -0.0224 0.0052 -0.0141
v  2.6935 -1.7944 0.0665
v  13.1207 -5.6202 5.7914
v  21.0667 -8.1727 10.7916
v  -13.1763 -21.0896 -3.1003
v  -19.3337 -29.0570 -7.6127
v  -13.5046 -20.2908 -5.3184
v  -7.8965 -13.2151 -0.9159
v  -8.2415 -12.3757 -3.2468
v  -1.2533 -2.8129 1.0336
v  -1.4938 -2.2278 -0.5908
v  -0.0041 0.0125 -0.0044
v  -1.7342 -1.6428 -2.2152
v  -8.5865 -11.5362 -5.5776
v  -13.8329 -19.4919 -7.5364
v  -19.6253 29.2074 -6.1637
v  -15.5665 19.3772 -3.2233
v  -13.7083 20.3967 -4.3064
v  -10.3184 11.3700 -1.4913
v  -8.3657 12.4415 -2.6295
v  -2.8770 1.4955 0.3137
v  -1.5162 2.2422 -0.4796
v  -0.0040 -0.0094 -0.0050
v  -0.1553 2.9889 -1.2729
v  -6.4131 13.5129 -3.7678
v  -11.8501 21.4163 -5.3896
v  3.4844 19.1428 15.7759
v  8.3089 26.8345 22.0462
v  5.7989 18.7397 15.3932
v  1.1004 11.8544 9.7884
v  3.5326 11.4308 9.3862
v  -1.0681 2.3554 1.9649
v  0.6270 2.0602 1.6846
v  -0.0145 -0.0086 -0.0156
v  2.3220 1.7649 1.4044
v  5.9647 11.0071 8.9840
v  8.1134 18.3366 15.0105
v  14.4157 -20.8989 25.1049
v  8.9127 -13.3657 19.2124
v  10.0634 -14.5938 17.5292
v  4.9245 -7.6102 12.4578
v  6.1337 -8.9008 10.6890
v  0.2527 -0.7025 3.1521
v  1.0955 -1.6019 1.9193
v  -0.0168 0.0094 -0.0167
v  1.9382 -2.5014 0.6866
v  7.3429 -10.1914 8.9201
v  11.2142 -15.8219 15.8459
v  23.0744 -7.9205 -5.6648
v  33.1113 -8.6451 -10.1913
v  23.1191 -6.0366 -7.1190
v  14.0500 -5.6611 -2.8169
v  14.0969 -3.6814 -4.3451
v  2.4971 -2.0415 0.2764
v  2.5298 -0.6618 -0.7886
v  -0.0238 0.0048 -0.0035
v  2.5625 0.7178 -1.8536
v  14.1439 -1.7017 -5.8732
v  23.1637 -4.1528 -8.5732
v  4.5591 -9.4927 -22.7381
v  9.7051 -14.0216 -31.3846
v  6.7739 -9.7912 -21.9188
v  1.7998 -5.6578 -14.2330
v  4.1273 -5.9715 -13.3721
v  -0.8880 -0.8557 -3.0146
v  0.7341 -1.0743 -2.4146
v  -0.0150 0.0068 0.0045
v  2.3561 -1.2929 -1.8146
v  6.4547 -6.2852 -12.5112
v  8.9887 -10.0897 -21.0996
v  -5.4425 19.1338 -15.2447
v  -7.8151 25.0219 -24.2700
v  -5.4609 17.4739 -16.9505
v  -3.3160 12.4030 -8.5491
v  -3.3353 10.6587 -10.3417
v  -0.5966 3.1368 -0.6194
v  -0.6101 1.9211 -1.8687
v  -0.0084 -0.0079 0.0018
v  -0.6235 0.7054 -3.1180
v  -3.3546 8.9143 -12.1344
v  -5.4792 15.8139 -18.6564
v  10.2770 -10.4814 -3.5364
v  15.1282 -13.7823 -6.6579
v  10.5661 -9.6261 -4.6501
v  6.1431 -6.7722 -1.6669
v  6.4469 -5.8734 -2.8373
v  0.9541 -1.6885 0.3025
v  1.1658 -1.0621 -0.5132
v  -0.0001 0.0000 -0.0001
v  1.3775 -0.4357 -1.3289
v  6.7506 -4.9746 -4.0077
v  10.8551 -8.7708 -5.7639
v  -8.3573 -8.1415 -9.5736
v  -10.7401 -10.8642 -15.1488
v  -7.4984 -7.5883 -10.5796
v  -5.4740 -5.2118 -5.3969
v  -4.5715 -4.6305 -6.4540
v  -1.4478 -1.2434 -0.4279
v  -0.8189 -0.8383 -1.1646
v  0.0096 -0.0011 0.0031
v  -0.1899 -0.4331 -1.9013
v  -3.6690 -4.0491 -7.5111
v  -6.6396 -7.0351 -11.5855
v  6.1463 13.7605 -0.7378
v  10.0556 19.0112 0.4116
v  7.0238 13.2744 0.2866
v  3.3642 8.6054 -0.9027
v  4.2863 8.0947 0.1738
v  0.1340 1.8097 -0.7211
v  0.7766 1.4538 0.0292
v  0.0018 -0.0123 -0.0027
v  1.4192 1.0978 0.7794
v  5.2083 7.5839 1.2503
v  7.9012 12.7884 1.3111
v  -2.9964 -9.4123 11.4095
v  -4.2911 -14.9267 14.8865
v  -2.9949 -10.4252 10.3948
v  -1.8261 -5.2964 7.4055
v  -1.8245 -6.3608 6.3393
v  -0.3252 -0.4081 1.8828
v  -0.3241 -1.1499 1.1397
v  0.0072 0.0004 -0.0082
v  -0.3230 -1.8918 0.3966
v  -1.8230 -7.4253 5.2730
v  -2.9934 -11.4381 9.3801
v  -4.8165 0.8328 -14.2780
v  -5.1840 2.2792 -20.7546
v  -3.6184 1.5901 -14.4943
v  -3.4639 0.1720 -8.6145
v  -2.2049 0.9678 -8.8417
v  -1.2700 -0.3845 -1.4363
v  -0.3926 0.1701 -1.5947
v  0.0075 -0.0060 0.0052
v  0.4848 0.7247 -1.7531
v  -0.9459 1.7636 -9.0689
v  -2.4204 2.3473 -14.7105
v  -11.6621 8.3013 4.7523
v  -16.2059 11.1697 8.6639
v  -11.3153 7.7985 6.0494
v  -7.2640 5.2830 2.3257
v  -6.8996 4.7546 3.6888
v  -1.4922 1.2204 -0.2876
v  -1.2382 0.8522 0.6623
v  0.0116 -0.0094 -0.0059
v  -0.9842 0.4839 1.6122
v  -6.5351 4.2263 5.0519
v  -10.9685 7.2957 7.3465
v  -2.3921 -20.8601 4.7006
v  -3.0630 -14.4811 2.9593
v  -1.6688 -14.5687 3.2818
v  -2.4808 -8.7961 1.6618
v  -1.0157 -8.8881 2.0007
v  -1.1995 -1.5410 0.1221
v  -0.1784 -1.6052 0.3582
v  0.0065 0.0027 -0.0044
v  0.8427 -1.6693 0.5944
v  0.4495 -8.9801 2.3395
v  -0.2745 -14.6563 3.6042
v  9.8826 0.4286 -11.4043
v  14.9794 2.1817 -15.2930
v  10.4622 1.5220 -10.6803
v  5.7744 -0.2227 -7.2762
v  6.3835 0.9263 -6.5154
v  0.7299 -0.6381 -1.7059
v  1.1543 0.1626 -1.1757
v  -0.0001 -0.0060 0.0032
v  1.5788 0.9634 -0.6455
v  6.9926 2.0753 -5.7546
v  11.0418 2.6153 -9.9563
v  -2.3965 10.9283 -10.1234
v  -3.8279 16.8173 -12.8520
v  -2.6714 11.7424 -8.9757
v  -1.3383 6.3048 -6.6818
v  -1.6273 7.1602 -5.4757
v  -0.0872 0.6893 -1.8290
v  -0.2886 1.2855 -0.9884
v  0.0070 -0.0115 0.0022
v  -0.4899 1.8816 -0.1478
v  -1.9162 8.0156 -4.2695
v  -2.9464 12.5564 -7.8279
v  -21.0237 1.0155 4.4160
v  -14.9642 0.8826 1.6887
v  -14.6797 0.7076 3.0830
v  -9.2506 0.6135 0.4143
v  -8.9517 0.4296 1.8795
v  -1.8162 0.2013 -0.6847
v  -1.6078 0.0731 0.3364
v  0.0135 -0.0055 -0.0043
v  -1.3995 -0.0550 1.3575
v  -8.6527 0.2457 3.3447
v  -14.3953 0.5326 4.4773
v  -3.0339 6.3598 13.3387
v  -2.4893 9.9599 18.8990
v  -1.7367 6.9537 13.1969
v  -2.4203 3.6153 8.1974
v  -1.0571 4.2393 8.0483
v  -1.1359 0.3245 1.5514
v  -0.1859 0.7594 1.4475
v  0.0065 -0.0089 -0.0097
v  0.7642 1.1943 1.3437
v  0.3061 4.8634 7.8993
v  -0.4395 7.5475 13.0550
v  7.6530 -4.3931 12.2451
v  9.7778 -4.9259 18.5200
v  6.8297 -3.4414 12.9322
v  5.0331 -3.1011 7.1648
v  4.1679 -2.1011 7.8869
v  1.3582 -1.0796 0.9152
v  0.7553 -0.3827 1.4185
v  0.0019 -0.0033 -0.0096
v  0.1523 0.3143 1.9217
v  3.3028 -1.1011 8.6090
v  6.0064 -2.4898 13.6194
v  20.9181 3.6122 -3.5206
v  14.2758 3.3832 -3.5552
v  14.6093 2.5210 -2.4593
v  8.5626 2.4417 -2.6527
v  8.9130 1.5356 -1.5011
v  1.3657 0.9038 -1.0751
v  1.6100 0.2724 -0.2725
v  -0.0023 -0.0065 -0.0013
v  1.8542 -0.3591 0.5301
v  9.2635 0.6296 -0.3494
v  14.9428 1.6587 -1.3634
v  19.4113 28.8926 -7.9860
v  13.4101 20.8975 -3.3149
v  13.5520 20.1769 -5.5790
v  8.1125 13.0647 -1.0265
v  8.2615 12.3074 -3.4057
v  1.3748 2.7458 1.0387
v  1.4787 2.2181 -0.6194
v  -0.0187 -0.0093 -0.0043
v  1.5826 1.6903 -2.2776
v  8.4106 11.5501 -5.7850
v  13.6938 19.4562 -7.8432
v  1.8975 -23.2782 -9.0697
v  -0.5770 -33.5770 -12.1627
v  -0.4064 -23.4472 -8.4958
v  2.1687 -14.1234 -5.7879
v  -0.2523 -14.3009 -5.1848
v  1.6325 -2.4509 -1.3602
v  -0.0548 -2.5746 -0.9399
v  -0.0112 0.0142 -0.0027
v  -1.7420 -2.6983 -0.5195
v  -2.6733 -14.4784 -4.5817
v  -2.7103 -23.6162 -7.9218
v  -29.8817 4.0333 -19.1671
v  -20.6098 0.6167 -14.2567
v  -20.8706 2.8170 -13.3871
v  -12.4603 -0.5934 -9.0821
v  -12.7344 1.7188 -8.1682
v  -2.1120 -1.3006 -2.1141
v  -2.3030 0.3109 -1.4772
v  -2.4940 1.9223 -0.8404
v  -13.0084 4.0311 -7.2544
v  -21.1314 5.0174 -12.5175
v  -16.6355 -7.2008 17.2983
v  -24.8812 -7.0772 24.6296
v  -17.3786 -4.9417 17.1973
v  -9.8235 -5.3875 10.5927
v  -10.6044 -3.0136 10.4865
v  -1.3752 -2.1960 1.9569
v  -1.9194 -0.5415 1.8828
v  -0.0020 0.0042 -0.0166
v  -2.4636 1.1129 1.8088
v  -11.3853 -0.6396 10.3803
v  -18.1217 -2.6827 17.0962
# 285 vertices

vn 0.8733 0.1788 0.4532
vn -0.5085 -0.7483 0.4260
vn 0.8296 -0.4748 -0.2938
vn 0.8296 -0.4747 -0.2938
vn 0.2983 0.3845 0.8736
vn -0.0162 0.6379 -0.7700
vn -0.0162 0.6378 -0.7700
vn -0.7766 -0.6256 -0.0745
vn 0.3736 0.5612 0.7385
vn 0.3736 0.5613 0.7385
vn 0.3736 0.5612 0.7386
vn -0.2453 -0.9111 0.3312
vn -0.9758 -0.1513 0.1578
vn -0.9758 -0.1514 0.1578
vn 0.6820 0.4837 0.5485
vn 0.6821 0.4837 0.5485
vn 0.1096 0.0903 0.9899
vn 0.6821 0.4837 0.5484
vn 0.6258 -0.7722 0.1097
vn 0.6258 -0.7722 0.1096
vn 0.6259 -0.7722 0.1096
vn 0.6381 -0.3220 -0.6994
vn 0.6381 -0.3220 -0.6993
vn 0.6382 -0.3220 -0.6993
vn 0.9799 -0.1406 0.1418
vn 0.9798 -0.1406 0.1418
vn 0.9798 -0.1406 0.1419
vn 0.9799 -0.1407 0.1418
vn 0.4935 -0.8425 -0.2162
vn 0.4935 -0.8425 -0.2161
vn 0.6112 0.7792 0.1386
vn 0.6113 0.7792 0.1386
vn 0.6113 0.7792 0.1387
vn 0.2047 -0.2377 -0.9495
vn 0.2046 -0.2377 -0.9495
vn 0.5934 -0.6388 0.4897
vn 0.9651 0.2572 0.0487
vn 0.9651 0.2572 0.0488
vn -0.0712 -0.9914 -0.1099
vn -0.4098 0.7835 -0.4671
vn -0.4098 0.7835 -0.4672
vn -0.4097 0.7835 -0.4671
vn -0.4097 0.7835 -0.4672
vn -0.6811 -0.7121 0.1702
vn -0.6811 -0.7121 0.1701
vn -0.0302 0.7811 0.6237
vn 0.8371 -0.5040 0.2128
vn 0.8371 -0.5040 0.2129
vn -0.2508 0.3332 -0.9089
vn -0.2509 0.3332 -0.9089
vn -0.2509 0.3332 -0.9088
vn -0.5371 -0.3643 0.7608
vn -0.5371 -0.3643 0.7607
vn -0.5371 -0.3644 0.7607
vn -0.6463 -0.2449 -0.7227
# 55 vertex normals

vt 0.5000 0.8988 0.0000
vt 0.5966 0.7764 0.0000
vt 0.5000 0.7764 0.0000
vt 0.5966 0.7130 0.0000
vt 0.5000 0.7130 0.0000
vt 0.5673 0.6496 0.0000
vt 0.5000 0.6496 0.0000
vt 0.5000 0.5862 0.0000
vt 0.4326 0.6496 0.0000
vt 0.4034 0.7130 0.0000
vt 0.4034 0.7764 0.0000
vt 0.5000 0.8335 0.0000
vt 0.5966 0.7112 0.0000
vt 0.5000 0.7112 0.0000
vt 0.5966 0.6477 0.0000
vt 0.5000 0.6477 0.0000
vt 0.5673 0.5843 0.0000
vt 0.5000 0.5843 0.0000
vt 0.5000 0.5209 0.0000
vt 0.4326 0.5843 0.0000
vt 0.4034 0.6477 0.0000
vt 0.4034 0.7112 0.0000
vt 0.5966 0.6666 0.0000
vt 0.5000 0.7890 0.0000
vt 0.5000 0.6666 0.0000
vt 0.5966 0.6032 0.0000
vt 0.5000 0.6032 0.0000
vt 0.5673 0.5398 0.0000
vt 0.5000 0.5398 0.0000
vt 0.5000 0.4764 0.0000
vt 0.4326 0.5398 0.0000
vt 0.4034 0.6032 0.0000
vt 0.4034 0.6666 0.0000
vt 0.5000 0.7398 0.0000
vt 0.5966 0.6175 0.0000
vt 0.5000 0.6175 0.0000
vt 0.5966 0.5541 0.0000
vt 0.5000 0.5541 0.0000
vt 0.5673 0.4907 0.0000
vt 0.5000 0.4907 0.0000
vt 0.5000 0.4272 0.0000
vt 0.4326 0.4907 0.0000
vt 0.4034 0.5541 0.0000
vt 0.4034 0.6175 0.0000
vt 0.5966 0.5269 0.0000
vt 0.5000 0.6492 0.0000
vt 0.5000 0.5269 0.0000
vt 0.5966 0.4635 0.0000
vt 0.5000 0.4635 0.0000
vt 0.5673 0.4000 0.0000
vt 0.5000 0.4000 0.0000
vt 0.5000 0.3366 0.0000
vt 0.4326 0.4000 0.0000
vt 0.4034 0.4635 0.0000
vt 0.4034 0.5269 0.0000
vt 0.5000 0.6546 0.0000
vt 0.5966 0.5323 0.0000
vt 0.5000 0.5323 0.0000
vt 0.5966 0.4688 0.0000
vt 0.5000 0.4688 0.0000
vt 0.5673 0.4054 0.0000
vt 0.5000 0.4054 0.0000
vt 0.5000 0.3420 0.0000
vt 0.4326 0.4054 0.0000
vt 0.4034 0.4688 0.0000
vt 0.4034 0.5323 0.0000
vt 0.5966 0.6689 0.0000
vt 0.5000 0.7913 0.0000
vt 0.5000 0.6689 0.0000
vt 0.5966 0.6055 0.0000
vt 0.5000 0.6055 0.0000
vt 0.5673 0.5421 0.0000
vt 0.5000 0.5421 0.0000
vt 0.5000 0.4787 0.0000
vt 0.4326 0.5421 0.0000
vt 0.4034 0.6055 0.0000
vt 0.4034 0.6689 0.0000
vt 0.5966 0.4240 0.0000
vt 0.5000 0.5463 0.0000
vt 0.5000 0.4240 0.0000
vt 0.5966 0.3606 0.0000
vt 0.5000 0.3606 0.0000
vt 0.5673 0.2972 0.0000
vt 0.5000 0.2972 0.0000
vt 0.5000 0.2337 0.0000
vt 0.4326 0.2972 0.0000
vt 0.4034 0.3606 0.0000
vt 0.4034 0.4240 0.0000
# 88 texture coords

g Sparks
usemtl mtl1
s 1
f 1/1/1 2/2/1 3/3/1 
f 3/3/1 2/2/1 4/4/1 
f 3/3/1 4/4/1 5/5/1 
f 5/5/1 4/4/1 6/6/1 
f 5/5/1 6/6/1 7/7/1 
f 7/7/1 6/6/1 8/8/1 
f 7/7/1 8/8/1 9/9/1 
f 7/7/1 9/9/1 10/10/1 
f 7/7/1 10/10/1 5/5/1 
f 5/5/1 10/10/1 11/11/1 
f 5/5/1 11/11/1 3/3/1 
f 3/3/1 11/11/1 1/1/1 
f 12/12/2 13/13/2 14/14/2 
f 14/14/2 13/13/2 15/15/2 
f 14/14/2 15/15/2 16/16/2 
f 16/16/2 15/15/2 17/17/2 
f 16/16/2 17/17/2 18/18/2 
f 18/18/2 17/17/2 19/19/2 
f 18/18/2 19/19/2 20/20/2 
f 18/18/2 20/20/2 21/21/2 
f 18/18/2 21/21/2 16/16/2 
f 16/16/2 21/21/2 22/22/2 
f 16/16/2 22/22/2 14/14/2 
f 14/14/2 22/22/2 12/12/2 
f 23/23/3 24/24/3 25/25/3 
f 23/23/3 25/25/3 26/26/3 
f 26/26/3 25/25/3 27/27/3 
f 26/26/3 27/27/3 28/28/4 
f 28/28/4 27/27/3 29/29/3 
f 28/28/4 29/29/3 30/30/3 
f 30/30/3 29/29/3 31/31/3 
f 31/31/3 29/29/3 32/32/3 
f 32/32/3 29/29/3 27/27/3 
f 32/32/3 27/27/3 33/33/3 
f 33/33/3 27/27/3 25/25/3 
f 33/33/3 25/25/3 24/24/3 
f 34/34/5 35/35/5 36/36/5 
f 36/36/5 35/35/5 37/37/5 
f 36/36/5 37/37/5 38/38/5 
f 38/38/5 37/37/5 39/39/5 
f 38/38/5 39/39/5 40/40/5 
f 40/40/5 39/39/5 41/41/5 
f 40/40/5 41/41/5 42/42/5 
f 40/40/5 42/42/5 43/43/5 
f 40/40/5 43/43/5 38/38/5 
f 38/38/5 43/43/5 44/44/5 
f 38/38/5 44/44/5 36/36/5 
f 36/36/5 44/44/5 34/34/5 
f 45/45/6 46/46/6 47/47/6 
f 45/45/6 47/47/6 48/48/6 
f 48/48/6 47/47/6 49/49/6 
f 48/48/6 49/49/6 50/50/6 
f 50/50/6 49/49/6 51/51/7 
f 50/50/6 51/51/7 52/52/7 
f 52/52/7 51/51/7 53/53/7 
f 53/53/7 51/51/7 54/54/6 
f 54/54/6 51/51/7 49/49/6 
f 54/54/6 49/49/6 55/55/6 
f 55/55/6 49/49/6 47/47/6 
f 55/55/6 47/47/6 46/46/6 
f 56/56/8 57/57/8 58/58/8 
f 58/58/8 57/57/8 59/59/8 
f 58/58/8 59/59/8 60/60/8 
f 60/60/8 59/59/8 61/61/8 
f 60/60/8 61/61/8 62/62/8 
f 62/62/8 61/61/8 63/63/8 
f 62/62/8 63/63/8 64/64/8 
f 62/62/8 64/64/8 65/65/8 
f 62/62/8 65/65/8 60/60/8 
f 60/60/8 65/65/8 66/66/8 
f 60/60/8 66/66/8 58/58/8 
f 58/58/8 66/66/8 56/56/8 
f 67/67/9 68/68/9 69/69/9 
f 67/67/9 69/69/9 70/70/9 
f 70/70/9 69/69/9 71/71/9 
f 70/70/9 71/71/9 72/72/9 
f 72/72/9 71/71/9 73/73/9 
f 72/72/9 73/73/9 74/74/10 
f 74/74/10 73/73/9 75/75/10 
f 75/75/10 73/73/9 76/76/11 
f 76/76/11 73/73/9 71/71/9 
f 76/76/11 71/71/9 77/77/10 
f 77/77/10 71/71/9 69/69/9 
f 77/77/10 69/69/9 68/68/9 
f 78/35/12 79/34/12 80/36/12 
f 78/35/12 80/36/12 81/37/12 
f 81/37/12 80/36/12 82/38/12 
f 81/37/12 82/38/12 83/39/12 
f 83/39/12 82/38/12 84/40/12 
f 83/39/12 84/40/12 85/41/12 
f 85/41/12 84/40/12 86/42/12 
f 86/42/12 84/40/12 87/43/12 
f 87/43/12 84/40/12 82/38/12 
f 87/43/12 82/38/12 88/44/12 
f 88/44/12 82/38/12 80/36/12 
f 88/44/12 80/36/12 79/34/12 
f 89/78/13 90/79/14 91/80/14 
f 89/78/13 91/80/14 92/81/13 
f 92/81/13 91/80/14 93/82/13 
f 92/81/13 93/82/13 94/83/13 
f 94/83/13 93/82/13 95/84/14 
f 94/83/13 95/84/14 96/85/14 
f 96/85/14 95/84/14 97/86/14 
f 97/86/14 95/84/14 98/87/13 
f 98/87/13 95/84/14 93/82/13 
f 98/87/13 93/82/13 99/88/14 
f 99/88/14 93/82/13 91/80/14 
f 99/88/14 91/80/14 90/79/14 
f 100/35/15 101/34/16 102/36/16 
f 100/35/15 102/36/16 103/37/15 
f 103/37/15 102/36/16 104/38/16 
f 103/37/15 104/38/16 105/39/15 
f 105/39/15 104/38/16 106/40/15 
f 105/39/15 106/40/15 107/41/17 
f 107/41/17 106/40/15 108/42/16 
f 108/42/16 106/40/15 109/43/16 
f 109/43/16 106/40/15 104/38/16 
f 109/43/16 104/38/16 110/44/18 
f 110/44/18 104/38/16 102/36/16 
f 110/44/18 102/36/16 101/34/16 
f 111/35/19 112/34/20 113/36/20 
f 111/35/19 113/36/20 114/37/20 
f 114/37/20 113/36/20 115/38/20 
f 114/37/20 115/38/20 116/39/20 
f 116/39/20 115/38/20 117/40/20 
f 116/39/20 117/40/20 118/41/20 
f 118/41/20 117/40/20 119/42/20 
f 119/42/20 117/40/20 120/43/21 
f 120/43/21 117/40/20 115/38/20 
f 120/43/21 115/38/20 121/44/20 
f 121/44/20 115/38/20 113/36/20 
f 121/44/20 113/36/20 112/34/20 
f 122/35/22 123/34/23 124/36/23 
f 122/35/22 124/36/23 125/37/22 
f 125/37/22 124/36/23 126/38/22 
f 125/37/22 126/38/22 127/39/24 
f 127/39/24 126/38/22 128/40/23 
f 127/39/24 128/40/23 129/41/23 
f 129/41/23 128/40/23 130/42/22 
f 130/42/22 128/40/23 131/43/23 
f 131/43/23 128/40/23 126/38/22 
f 131/43/23 126/38/22 132/44/24 
f 132/44/24 126/38/22 124/36/23 
f 132/44/24 124/36/23 123/34/23 
f 133/35/25 134/34/25 135/36/25 
f 133/35/25 135/36/25 136/37/25 
f 136/37/25 135/36/25 137/38/25 
f 136/37/25 137/38/25 138/39/26 
f 138/39/26 137/38/25 139/40/26 
f 138/39/26 139/40/26 140/41/27 
f 140/41/27 139/40/26 141/42/26 
f 141/42/26 139/40/26 142/43/28 
f 142/43/28 139/40/26 137/38/25 
f 142/43/28 137/38/25 143/44/25 
f 143/44/25 137/38/25 135/36/25 
f 143/44/25 135/36/25 134/34/25 
f 144/2/29 145/1/30 146/3/30 
f 144/2/29 146/3/30 147/4/30 
f 147/4/30 146/3/30 148/5/30 
f 147/4/30 148/5/30 149/6/30 
f 149/6/30 148/5/30 150/7/30 
f 149/6/30 150/7/30 151/8/30 
f 151/8/30 150/7/30 152/9/30 
f 152/9/30 150/7/30 153/10/30 
f 153/10/30 150/7/30 148/5/30 
f 153/10/30 148/5/30 154/11/30 
f 154/11/30 148/5/30 146/3/30 
f 154/11/30 146/3/30 145/1/30 
f 155/13/31 156/12/31 157/14/31 
f 155/13/31 157/14/31 158/15/31 
f 158/15/31 157/14/31 159/16/31 
f 158/15/31 159/16/31 160/17/31 
f 160/17/31 159/16/31 161/18/32 
f 160/17/31 161/18/32 162/19/32 
f 162/19/32 161/18/32 163/20/33 
f 163/20/33 161/18/32 164/21/31 
f 164/21/31 161/18/32 159/16/31 
f 164/21/31 159/16/31 165/22/31 
f 165/22/31 159/16/31 157/14/31 
f 165/22/31 157/14/31 156/12/31 
f 166/24/34 167/23/34 168/25/34 
f 168/25/34 167/23/34 169/26/34 
f 168/25/34 169/26/34 170/27/34 
f 170/27/34 169/26/34 171/28/35 
f 170/27/34 171/28/35 172/29/34 
f 172/29/34 171/28/35 173/30/34 
f 172/29/34 173/30/34 174/31/34 
f 172/29/34 174/31/34 175/32/35 
f 172/29/34 175/32/35 170/27/34 
f 170/27/34 175/32/35 176/33/35 
f 170/27/34 176/33/35 168/25/34 
f 168/25/34 176/33/35 166/24/34 
f 177/35/36 178/34/36 179/36/36 
f 177/35/36 179/36/36 180/37/36 
f 180/37/36 179/36/36 181/38/36 
f 180/37/36 181/38/36 182/39/36 
f 182/39/36 181/38/36 183/40/36 
f 182/39/36 183/40/36 184/41/36 
f 184/41/36 183/40/36 185/42/36 
f 185/42/36 183/40/36 186/43/36 
f 186/43/36 183/40/36 181/38/36 
f 186/43/36 181/38/36 187/44/36 
f 187/44/36 181/38/36 179/36/36 
f 187/44/36 179/36/36 178/34/36 
f 188/45/37 189/46/38 190/47/38 
f 188/45/37 190/47/38 191/48/38 
f 191/48/38 190/47/38 192/49/38 
f 191/48/38 192/49/38 193/50/38 
f 193/50/38 192/49/38 194/51/38 
f 193/50/38 194/51/38 195/52/38 
f 195/52/38 194/51/38 196/53/37 
f 196/53/37 194/51/38 197/54/38 
f 197/54/38 194/51/38 192/49/38 
f 197/54/38 192/49/38 198/55/38 
f 198/55/38 192/49/38 190/47/38 
f 198/55/38 190/47/38 189/46/38 
f 199/56/39 200/57/39 201/58/39 
f 201/58/39 200/57/39 202/59/39 
f 201/58/39 202/59/39 203/60/39 
f 203/60/39 202/59/39 204/61/39 
f 203/60/39 204/61/39 205/62/39 
f 205/62/39 204/61/39 206/63/39 
f 205/62/39 206/63/39 207/64/39 
f 205/62/39 207/64/39 208/65/39 
f 205/62/39 208/65/39 203/60/39 
f 203/60/39 208/65/39 209/66/39 
f 203/60/39 209/66/39 201/58/39 
f 201/58/39 209/66/39 199/56/39 
f 210/67/40 211/68/40 212/69/41 
f 210/67/40 212/69/41 213/70/42 
f 213/70/42 212/69/41 214/71/40 
f 213/70/42 214/71/40 215/72/41 
f 215/72/41 214/71/40 216/73/43 
f 215/72/41 216/73/43 217/74/43 
f 217/74/43 216/73/43 218/75/43 
f 218/75/43 216/73/43 219/76/40 
f 219/76/40 216/73/43 214/71/40 
f 219/76/40 214/71/40 220/77/41 
f 220/77/41 214/71/40 212/69/41 
f 220/77/41 212/69/41 211/68/40 
f 221/35/44 222/34/44 223/36/44 
f 221/35/44 223/36/44 224/37/45 
f 224/37/45 223/36/44 225/38/44 
f 224/37/45 225/38/44 226/39/44 
f 226/39/44 225/38/44 227/40/44 
f 226/39/44 227/40/44 228/41/45 
f 228/41/45 227/40/44 229/42/44 
f 229/42/44 227/40/44 230/43/44 
f 230/43/44 227/40/44 225/38/44 
f 230/43/44 225/38/44 231/44/44 
f 231/44/44 225/38/44 223/36/44 
f 231/44/44 223/36/44 222/34/44 
f 232/79/46 233/78/46 234/80/46 
f 234/80/46 233/78/46 235/81/46 
f 234/80/46 235/81/46 236/82/46 
f 236/82/46 235/81/46 237/83/46 
f 236/82/46 237/83/46 238/84/46 
f 238/84/46 237/83/46 239/85/46 
f 238/84/46 239/85/46 240/86/46 
f 238/84/46 240/86/46 241/87/46 
f 238/84/46 241/87/46 236/82/46 
f 236/82/46 241/87/46 242/88/46 
f 236/82/46 242/88/46 234/80/46 
f 234/80/46 242/88/46 232/79/46 
f 243/34/47 244/35/48 245/36/47 
f 245/36/47 244/35/48 246/37/47 
f 245/36/47 246/37/47 247/38/47 
f 247/38/47 246/37/47 248/39/47 
f 247/38/47 248/39/47 249/40/48 
f 249/40/48 248/39/47 250/41/48 
f 249/40/48 250/41/48 251/42/48 
f 249/40/48 251/42/48 252/43/48 
f 249/40/48 252/43/48 247/38/47 
f 247/38/47 252/43/48 253/44/47 
f 247/38/47 253/44/47 245/36/47 
f 245/36/47 253/44/47 243/34/47 
f 254/35/49 255/34/50 256/36/50 
f 254/35/49 256/36/50 257/37/49 
f 257/37/49 256/36/50 258/38/49 
f 257/37/49 258/38/49 259/39/49 
f 259/39/49 258/38/49 260/40/50 
f 259/39/49 260/40/50 261/41/50 
f 261/41/50 260/40/50 262/42/51 
f 262/42/51 260/40/50 263/43/49 
f 263/43/49 260/40/50 258/38/49 
f 263/43/49 258/38/49 264/44/50 
f 264/44/50 258/38/49 256/36/50 
f 264/44/50 256/36/50 255/34/50 
f 265/34/52 266/35/53 267/36/52 
f 267/36/52 266/35/53 268/37/54 
f 267/36/52 268/37/54 269/38/53 
f 269/38/53 268/37/54 270/39/52 
f 269/38/53 270/39/52 271/40/52 
f 271/40/52 270/39/52 107/41/17 
f 271/40/52 107/41/17 272/42/52 
f 271/40/52 272/42/52 273/43/52 
f 271/40/52 273/43/52 269/38/53 
f 269/38/53 273/43/52 274/44/52 
f 269/38/53 274/44/52 267/36/52 
f 267/36/52 274/44/52 265/34/52 
f 275/35/55 276/34/55 277/36/55 
f 275/35/55 277/36/55 278/37/55 
f 278/37/55 277/36/55 279/38/55 
f 278/37/55 279/38/55 280/39/55 
f 280/39/55 279/38/55 281/40/55 
f 280/39/55 281/40/55 282/41/55 
f 282/41/55 281/40/55 283/42/55 
f 283/42/55 281/40/55 284/43/55 
f 284/43/55 281/40/55 279/38/55 
f 284/43/55 279/38/55 285/44/55 
f 285/44/55 279/38/55 277/36/55 
f 285/44/55 277/36/55 276/34/55 
# 0 polygons - 312 triangles

#
# object Crystal
#

v  1.4474 -14.1110 -1.9859
v  -2.2424 -13.5752 -1.3606
v  -0.9906 10.8475 -5.3616
v  -2.4390 15.7412 -0.9089
v  0.1891 18.4056 1.2541
v  0.3673 16.5884 -2.9754
v  5.4102 6.6486 -1.8011
v  0.9906 5.9851 5.3616
v  2.2424 -12.5417 1.3606
v  0.0000 -17.3084 -0.0000
v  -1.4474 -12.0059 1.9859
v  -5.4102 10.1840 1.8011
v  2.9016 15.6982 -0.0890
# 13 vertices

vn -0.1863 -0.1495 -0.9711
vn -0.5020 0.7868 -0.3592
vn 0.8520 -0.0549 0.5206
vn 0.9067 -0.4215 -0.0178
vn 0.9722 -0.1843 -0.1445
vn -0.5273 -0.0871 0.8452
vn -0.8485 -0.0429 -0.5275
vn 0.4456 -0.0771 -0.8919
vn 0.1353 -0.2004 0.9703
vn -0.9393 -0.1652 0.3006
vn -0.6167 0.4221 -0.6645
vn 0.7589 0.3179 -0.5683
vn 0.6352 0.2791 0.7201
vn -0.7865 0.5538 0.2734
vn 0.5978 0.7453 -0.2950
vn 0.8380 0.1322 0.5293
vn -0.3207 0.2787 0.9052
vn 0.5717 0.1959 -0.7967
vn -0.8412 0.2059 -0.5000
vn 0.1127 -0.3214 0.9402
vn -0.2120 -0.4446 -0.8703
vn -0.8484 -0.3725 0.3762
# 22 vertex normals

vt 0.4387 0.3270 0.0000
vt 0.4074 0.4592 0.0000
vt 0.3961 0.6181 0.0000
vt 0.4817 0.3270 0.0000
vt 0.4714 0.4592 0.0000
vt 0.4403 0.6181 0.0000
vt 0.4817 0.6181 0.0000
vt 0.3545 0.3270 0.0000
vt 0.3794 0.4592 0.0000
vt 0.4026 0.6181 0.0000
# 10 texture coords

g Crystal
usemtl mtl0_002
s off
f 286/89/56 287/90/56 288/91/56 
f 289/90/57 290/91/57 291/89/57 
f 292/92/58 293/93/58 294/94/58 
f 295/90/59 286/91/59 294/89/59 
f 294/89/60 286/90/60 292/91/60 
f 296/93/61 293/95/61 297/92/61 
f 288/96/62 287/97/62 297/98/62 
f 286/93/63 288/94/63 292/92/63 
f 294/89/64 293/90/64 296/91/64 
f 296/90/65 297/91/65 287/89/65 
f 288/92/66 289/93/66 291/94/66 
f 291/93/67 298/94/67 292/92/67 
f 293/92/68 298/93/68 290/94/68 
f 290/97/69 289/98/69 297/96/69 
f 291/89/70 290/90/70 298/91/70 
f 292/90/71 298/91/71 293/89/71 
f 297/89/72 293/90/72 290/91/72 
f 288/90/73 291/91/73 292/89/73 
f 288/89/74 297/90/74 289/91/74 
f 296/93/75 295/94/75 294/92/75 
f 295/96/76 287/97/76 286/98/76 
f 296/90/77 287/91/77 295/89/77 
# 0 polygons - 22 triangles

