# 3ds Max Wavefront OBJ Exporter v0.97b - (c)2007 guruware
# File Created: 15.06.2016 23:13:08

mtllib Eye.mtl

#
# object Eye
#

v  -1.7050 2.9528 1.9682
v  -1.9685 3.4095 -0.0003
v  -3.4095 1.9685 -0.0005
v  -0.0003 3.4096 1.9685
v  0.0000 3.9370 -0.0000
v  1.7045 2.9528 1.9688
v  1.9685 3.4095 0.0003
v  2.9525 1.7048 1.9690
v  3.4095 1.9685 0.0005
v  3.4092 0.0000 1.9690
v  3.9370 0.0000 0.0006
v  2.9525 -1.7048 1.9690
v  3.4095 -1.9685 0.0005
v  1.7045 -2.9528 1.9688
v  1.9685 -3.4095 0.0003
v  -0.0003 -3.4095 1.9685
v  0.0000 -3.9370 -0.0000
v  1.7050 -2.9528 -1.9682
v  2.9530 -1.7048 -1.9680
v  3.4099 0.0000 -1.9680
v  2.9530 1.7048 -1.9680
v  1.7050 2.9528 -1.9682
v  0.0003 3.4096 -1.9685
v  -1.7045 2.9528 -1.9688
v  -2.9525 1.7048 -1.9690
v  -3.4092 0.0000 -1.9690
v  -3.9370 0.0000 -0.0006
v  0.0003 -3.4095 -1.9685
v  -1.9685 -3.4095 -0.0003
v  -1.7045 -2.9528 -1.9688
v  -3.4095 -1.9685 -0.0005
v  -2.9525 -1.7048 -1.9690
v  -1.7043 -0.9842 -3.4098
v  -0.9837 -1.7048 -3.4097
v  0.0005 -1.9685 -3.4095
v  0.9848 -1.7048 -3.4094
v  1.7053 -0.9843 -3.4093
v  1.9690 0.0000 -3.4092
v  1.7053 0.9843 -3.4093
v  0.9848 1.7048 -3.4094
v  0.0005 1.9685 -3.4095
v  -0.9837 1.7048 -3.4097
v  -1.7043 0.9843 -3.4098
v  -1.9680 0.0000 -3.4099
v  -2.9530 1.7048 1.9680
v  -1.7053 0.9843 3.4093
v  -0.9848 1.7048 3.4094
v  -3.4099 0.0000 1.9680
v  -1.9690 0.0000 3.4092
v  -2.9530 -1.7048 1.9680
v  -1.7053 -0.9842 3.4093
v  -1.7050 -2.9528 1.9682
v  -0.9848 -1.7048 3.4094
v  -0.0005 -1.9685 3.4095
v  0.9837 -1.7048 3.4097
v  1.7043 -0.9843 3.4098
v  1.9680 0.0000 3.4099
v  1.7043 0.9843 3.4098
v  0.9837 1.7048 3.4097
v  -0.0005 1.9685 3.4095
v  -0.0006 0.0000 3.9370
v  0.0006 0.0000 -3.9370
# 62 vertices

vn -0.4381 0.7586 0.4823
vn -0.5000 0.8660 -0.0001
vn -0.8660 0.5000 -0.0001
vn -0.0001 0.8760 0.4823
vn -0.0000 1.0000 -0.0000
vn 0.4379 0.7586 0.4824
vn 0.5000 0.8660 0.0001
vn 0.7586 0.4380 0.4824
vn 0.8660 0.5000 0.0001
vn 0.8759 0.0000 0.4825
vn 1.0000 0.0000 0.0001
vn 0.7586 -0.4380 0.4824
vn 0.8660 -0.5000 0.0001
vn 0.4379 -0.7586 0.4824
vn 0.5000 -0.8660 0.0001
vn -0.0001 -0.8760 0.4823
vn -0.0000 -1.0000 -0.0000
vn 0.4381 -0.7586 -0.4823
vn 0.7587 -0.4380 -0.4822
vn 0.8761 -0.0000 -0.4822
vn 0.7587 0.4380 -0.4822
vn 0.4381 0.7586 -0.4823
vn 0.0001 0.8760 -0.4823
vn -0.4379 0.7586 -0.4824
vn -0.7586 0.4380 -0.4824
vn -0.8759 0.0000 -0.4825
vn -1.0000 0.0000 -0.0001
vn 0.0001 -0.8760 -0.4823
vn -0.5000 -0.8660 -0.0001
vn -0.4379 -0.7586 -0.4824
vn -0.8660 -0.5000 -0.0001
vn -0.7586 -0.4380 -0.4825
vn -0.4597 -0.2654 -0.8475
vn -0.2653 -0.4598 -0.8475
vn 0.0001 -0.5309 -0.8474
vn 0.2655 -0.4598 -0.8474
vn 0.4599 -0.2654 -0.8474
vn 0.5310 -0.0000 -0.8473
vn 0.4599 0.2654 -0.8474
vn 0.2655 0.4598 -0.8474
vn 0.0001 0.5309 -0.8474
vn -0.2653 0.4598 -0.8475
vn -0.4596 0.2655 -0.8475
vn -0.5308 -0.0000 -0.8475
vn -0.7587 0.4380 0.4822
vn -0.4599 0.2654 0.8474
vn -0.2655 0.4598 0.8474
vn -0.8761 -0.0000 0.4822
vn -0.5310 -0.0000 0.8473
vn -0.7587 -0.4380 0.4822
vn -0.4599 -0.2654 0.8474
vn -0.4381 -0.7586 0.4823
vn -0.2656 -0.4598 0.8474
vn -0.0001 -0.5309 0.8474
vn 0.2653 -0.4598 0.8475
vn 0.4597 -0.2655 0.8475
vn 0.5308 0.0000 0.8475
vn 0.4596 0.2655 0.8475
vn 0.2653 0.4598 0.8475
vn -0.0001 0.5309 0.8474
vn -0.0001 -0.0000 1.0000
vn 0.0001 -0.0000 -1.0000
# 62 vertex normals

vt 0.7635 0.8032 0.0000
vt 0.3749 0.5722 0.0000
vt 0.5000 0.5000 0.0000
vt 0.4278 0.6251 0.0000
vt 0.3555 0.5000 0.0000
vt 0.3749 0.4278 0.0000
vt 0.4278 0.3749 0.0000
vt 0.5000 0.3555 0.0000
vt 0.5722 0.3749 0.0000
vt 0.6251 0.4278 0.0000
vt 0.6445 0.5000 0.0000
vt 0.6251 0.5722 0.0000
vt 0.5722 0.6251 0.0000
vt 0.5000 0.6445 0.0000
# 14 texture coords

g Eye
usemtl Material__25
s 1
f 1/1/1 2/1/2 3/1/3 
f 4/1/4 2/1/2 1/1/1 
f 4/1/4 5/1/5 2/1/2 
f 6/1/6 5/1/5 4/1/4 
f 6/1/6 7/1/7 5/1/5 
f 8/1/8 7/1/7 6/1/6 
f 8/1/8 9/1/9 7/1/7 
f 10/1/10 9/1/9 8/1/8 
f 10/1/10 11/1/11 9/1/9 
f 12/1/12 11/1/11 10/1/10 
f 12/1/12 13/1/13 11/1/11 
f 14/1/14 13/1/13 12/1/12 
f 14/1/14 15/1/15 13/1/13 
f 16/1/16 15/1/15 14/1/14 
f 17/1/17 15/1/15 16/1/16 
f 18/1/18 15/1/15 17/1/17 
f 19/1/19 15/1/15 18/1/18 
f 19/1/19 13/1/13 15/1/15 
f 20/1/20 13/1/13 19/1/19 
f 20/1/20 11/1/11 13/1/13 
f 21/1/21 11/1/11 20/1/20 
f 21/1/21 9/1/9 11/1/11 
f 22/1/22 9/1/9 21/1/21 
f 22/1/22 7/1/7 9/1/9 
f 23/1/23 7/1/7 22/1/22 
f 23/1/23 5/1/5 7/1/7 
f 24/1/24 5/1/5 23/1/23 
f 24/1/24 2/1/2 5/1/5 
f 25/1/25 2/1/2 24/1/24 
f 25/1/25 3/1/3 2/1/2 
f 26/1/26 3/1/3 25/1/25 
f 26/1/26 27/1/27 3/1/3 
f 17/1/17 28/1/28 18/1/18 
f 29/1/29 28/1/28 17/1/17 
f 29/1/29 30/1/30 28/1/28 
f 31/1/31 30/1/30 29/1/29 
f 31/1/31 32/1/32 30/1/30 
f 27/1/27 32/1/32 31/1/31 
f 26/1/26 32/1/32 27/1/27 
f 33/1/33 32/1/32 26/1/26 
f 34/1/34 32/1/32 33/1/33 
f 34/1/34 30/1/30 32/1/32 
f 35/1/35 30/1/30 34/1/34 
f 35/1/35 28/1/28 30/1/30 
f 36/1/36 28/1/28 35/1/35 
f 36/1/36 18/1/18 28/1/28 
f 37/1/37 18/1/18 36/1/36 
f 37/1/37 19/1/19 18/1/18 
f 38/1/38 19/1/19 37/1/37 
f 38/1/38 20/1/20 19/1/19 
f 39/1/39 20/1/20 38/1/38 
f 39/1/39 21/1/21 20/1/20 
f 40/1/40 21/1/21 39/1/39 
f 40/1/40 22/1/22 21/1/21 
f 41/1/41 22/1/22 40/1/40 
f 41/1/41 23/1/23 22/1/22 
f 42/1/42 23/1/23 41/1/41 
f 42/1/42 24/1/24 23/1/23 
f 43/1/43 24/1/24 42/1/42 
f 43/1/43 25/1/25 24/1/24 
f 44/1/44 25/1/25 43/1/43 
f 44/1/44 26/1/26 25/1/25 
f 44/1/44 33/1/33 26/1/26 
f 45/1/45 46/1/46 47/1/47 
f 48/1/48 46/1/46 45/1/45 
f 48/1/48 49/1/49 46/1/46 
f 50/1/50 49/1/49 48/1/48 
f 50/1/50 51/1/51 49/1/49 
f 52/1/52 51/1/51 50/1/50 
f 52/1/52 53/1/53 51/1/51 
f 16/1/16 53/1/53 52/1/52 
f 16/1/16 54/1/54 53/1/53 
f 14/1/14 54/1/54 16/1/16 
f 14/1/14 55/1/55 54/1/54 
f 12/1/12 55/1/55 14/1/14 
f 12/1/12 56/1/56 55/1/55 
f 10/1/10 56/1/56 12/1/12 
f 10/1/10 57/1/57 56/1/56 
f 8/1/8 57/1/57 10/1/10 
f 8/1/8 58/1/58 57/1/57 
f 6/1/6 58/1/58 8/1/8 
f 6/1/6 59/1/59 58/1/58 
f 4/1/4 59/1/59 6/1/6 
f 4/1/4 60/1/60 59/1/59 
f 1/1/1 60/1/60 4/1/4 
f 1/1/1 47/1/47 60/1/60 
f 1/1/1 45/1/45 47/1/47 
f 3/1/3 45/1/45 1/1/1 
f 27/1/27 45/1/45 3/1/3 
f 27/1/27 48/1/48 45/1/45 
f 31/1/31 48/1/48 27/1/27 
f 31/1/31 50/1/50 48/1/48 
f 29/1/29 50/1/50 31/1/31 
f 29/1/29 52/1/52 50/1/50 
f 17/1/17 52/1/52 29/1/29 
f 17/1/17 16/1/16 52/1/52 
f 46/2/46 61/3/61 47/4/47 
f 49/5/49 61/3/61 46/2/46 
f 51/6/51 61/3/61 49/5/49 
f 53/7/53 61/3/61 51/6/51 
f 54/8/54 61/3/61 53/7/53 
f 55/9/55 61/3/61 54/8/54 
f 56/10/56 61/3/61 55/9/55 
f 57/11/57 61/3/61 56/10/56 
f 58/12/58 61/3/61 57/11/57 
f 59/13/59 61/3/61 58/12/58 
f 60/14/60 61/3/61 59/13/59 
f 60/14/60 47/4/47 61/3/61 
f 42/1/42 62/1/62 43/1/43 
f 41/1/41 62/1/62 42/1/42 
f 40/1/40 62/1/62 41/1/41 
f 39/1/39 62/1/62 40/1/40 
f 38/1/38 62/1/62 39/1/39 
f 37/1/37 62/1/62 38/1/38 
f 36/1/36 62/1/62 37/1/37 
f 35/1/35 62/1/62 36/1/36 
f 34/1/34 62/1/62 35/1/35 
f 33/1/33 62/1/62 34/1/34 
f 44/1/44 62/1/62 33/1/33 
f 44/1/44 43/1/43 62/1/62 
# 0 polygons - 120 triangles

