# 3ds Max Wavefront OBJ Exporter v0.97b - (c)2007 guruware
# File Created: 15.06.2016 23:14:34

mtllib Foot.mtl

#
# object Foot
#

v  -1.8634 0.0851 -7.6173
v  -0.9797 0.3539 -8.9364
v  0.8403 0.2749 -8.9259
v  1.5247 0.1146 -7.4292
v  1.9580 0.8818 -7.9499
v  1.4095 0.8988 -4.0318
v  1.1246 0.0013 -3.6954
v  -2.3249 0.0230 -5.2824
v  2.6012 0.0105 3.4707
v  3.1095 0.6324 3.5865
v  2.3430 0.8624 5.0834
v  -3.7797 0.1763 0.5473
v  -3.8982 0.1675 2.8587
v  -4.0233 0.1641 3.7635
v  1.2012 2.9058 6.6799
v  2.5302 1.9471 6.0285
v  2.8193 2.1928 4.9992
v  1.9055 3.1385 4.9921
v  -0.4160 2.8517 6.5228
v  -1.7262 2.6569 6.2505
v  -2.8588 2.8134 4.4611
v  -3.0259 2.2254 5.7196
v  -2.4574 1.9008 6.3997
v  -0.6867 4.7378 -7.7918
v  -0.8984 1.1382 -9.3208
v  -1.9026 0.9639 -7.9229
v  -1.7908 4.4132 -6.9694
v  -2.4308 0.9123 -5.5143
v  -2.2047 3.8146 -4.7172
v  -4.6828 1.7640 0.5355
v  -2.7469 2.9034 0.3733
v  -1.9286 4.3698 -2.7299
v  -1.3192 5.7883 -4.4561
v  -0.5040 7.1661 -5.2395
v  -2.2570 4.8173 -5.2523
v  -0.7087 7.1419 -6.5206
v  -2.2569 4.9805 -6.2624
v  -0.3121 7.0964 -7.2816
v  1.4655 4.4524 -2.2515
v  1.1319 5.7484 -4.1620
v  0.9204 7.0006 -5.0585
v  0.6002 1.8592 7.3524
v  0.6988 1.2720 10.1957
v  1.0733 3.2478 10.4866
v  -3.5055 1.4005 9.3343
v  -4.3996 0.8874 7.9604
v  -3.2785 0.5491 8.5280
v  -2.5821 1.0299 9.2923
v  -3.7907 1.3857 5.5389
v  -1.0154 1.1439 5.6654
v  -3.9811 0.5450 4.3283
v  1.7543 0.3370 4.8766
v  1.9731 0.8485 6.0333
v  -4.6795 1.2366 4.0638
v  -4.9128 0.9150 3.3280
v  -4.3068 0.9365 2.7167
v  -4.6865 1.0004 0.3418
v  1.2452 1.0667 -9.4723
v  -4.1955 1.8146 4.7357
v  -6.2076 0.5675 5.8782
v  -5.7478 1.4999 6.8660
v  -4.7145 1.0078 7.1420
v  -1.6653 1.6405 10.1934
v  -0.9071 1.2013 10.1034
v  -0.9829 2.2324 7.1214
v  -4.5817 0.1853 5.9246
v  2.3484 0.5959 9.5289
v  -1.3730 0.6105 9.4673
v  -4.5198 1.7489 2.4771
v  -2.8012 2.6349 2.4322
v  -4.8373 1.7693 3.3486
v  -0.0689 1.9381 10.5200
v  -0.1359 0.4882 9.7186
v  2.3962 3.2657 11.0860
v  3.3216 2.3432 10.3167
v  3.0822 1.9027 3.5922
v  1.7500 3.8620 -4.1336
v  1.8120 3.3109 2.5616
v  1.3340 6.9042 -5.8086
v  2.2454 4.8236 -5.3249
v  2.0164 4.8565 -6.3267
v  0.9579 6.9038 -6.9933
v  1.4878 4.4397 -7.2929
v  0.8597 4.7944 -7.9357
v  0.8291 18.2789 -2.3905
v  0.8650 18.1194 -4.2184
v  2.3260 17.9422 -5.5921
v  3.6514 17.9057 -4.3441
v  3.9406 18.0572 -2.2797
v  2.4824 18.1808 -1.5490
v  2.2567 18.8601 -3.3643
# 91 vertices

vn -0.6254 -0.7255 -0.2875
vn -0.3817 -0.6627 -0.6443
vn 0.2365 -0.8188 -0.5232
vn 0.5523 -0.8308 -0.0687
vn 0.9522 -0.2288 -0.2025
vn 0.9796 -0.1942 -0.0527
vn 0.5335 -0.8443 -0.0504
vn -0.6197 -0.7704 -0.1498
vn 0.4609 -0.8797 0.1174
vn 0.9279 -0.3582 0.1032
vn 0.7511 -0.5499 0.3654
vn -0.3934 -0.9166 -0.0710
vn -0.4154 -0.9064 -0.0765
vn -0.3747 -0.8845 0.2778
vn 0.0647 0.9806 0.1850
vn 0.9762 0.1774 0.1250
vn 0.9161 0.3111 0.2529
vn 0.3909 0.9055 0.1651
vn -0.1154 0.9544 0.2754
vn -0.2893 0.9082 0.3025
vn -0.3350 0.9352 0.1148
vn -0.4861 0.8055 0.3389
vn -0.0886 -0.0856 0.9924
vn -0.3801 0.3200 -0.8678
vn -0.4352 -0.0019 -0.9003
vn -0.8941 -0.0078 -0.4478
vn -0.8251 0.1580 -0.5424
vn -0.9676 -0.0438 -0.2487
vn -0.9600 0.2686 -0.0792
vn -0.8988 0.4370 -0.0345
vn -0.3930 0.9040 0.1682
vn -0.6064 0.7584 0.2388
vn -0.6580 0.6833 0.3163
vn -0.6707 0.3454 0.6564
vn -0.9217 0.2410 0.3040
vn -0.8978 0.3761 -0.2289
vn -0.9586 0.0939 -0.2690
vn -0.3500 0.3010 -0.8871
vn 0.5814 0.7764 0.2434
vn 0.5676 0.6326 0.5269
vn 0.4833 0.1197 0.8672
vn -0.7524 -0.5398 0.3775
vn -0.4924 -0.5487 0.6757
vn -0.5985 0.6591 0.4554
vn -0.3451 0.3609 0.8664
vn -0.9609 -0.2671 0.0734
vn 0.0822 -0.9808 0.1771
vn 0.3295 -0.3896 0.8600
vn -0.0027 -0.1253 0.9921
vn -0.1236 -0.8205 0.5582
vn -0.2651 -0.8992 0.3479
vn 0.1650 -0.9168 0.3636
vn 0.3896 -0.8803 0.2707
vn -0.9811 0.1685 -0.0952
vn -0.9295 -0.3621 -0.0695
vn -0.8540 -0.4151 -0.3136
vn -0.9260 -0.3479 -0.1466
vn 0.4752 -0.1327 -0.8698
vn -0.5454 0.8121 0.2075
vn -0.9275 -0.3727 -0.0298
vn -0.5909 0.4557 0.6658
vn 0.2735 -0.0838 0.9582
vn -0.2062 0.4279 0.8800
vn 0.4082 -0.3189 0.8554
vn -0.2537 0.2300 0.9395
vn -0.6660 0.7217 0.1886
vn 0.3307 -0.9241 0.1917
vn 0.3095 -0.9163 0.2540
vn 0.2375 -0.9569 0.1671
vn -0.8760 0.4557 -0.1579
vn -0.3024 0.9532 0.0074
vn -0.8664 0.4990 0.0177
vn 0.0183 0.5380 0.8427
vn -0.0114 -0.9850 0.1724
vn 0.3099 0.5485 0.7766
vn 0.9087 0.0425 0.4152
vn 0.7234 -0.6708 -0.1636
vn -0.7183 -0.6630 -0.2110
vn 0.9509 0.3095 -0.0049
vn 0.9981 0.0610 0.0063
vn 0.3588 0.9283 0.0973
vn 0.9929 0.1034 0.0593
vn 0.9884 -0.0157 0.1513
vn 0.9428 -0.1020 -0.3173
vn 0.6194 0.2035 -0.7582
vn 0.9069 0.1207 -0.4036
vn 0.3529 0.3763 -0.8567
vn -0.7145 0.4872 0.5020
vn -0.7410 0.5730 -0.3501
vn 0.0904 0.5071 -0.8571
vn 0.8289 0.3861 -0.4047
vn 0.8260 0.3370 0.4518
vn 0.0427 0.3816 0.9233
vn -0.7062 0.6635 0.2473
vn 0.6799 0.7225 0.1256
vn 0.0368 0.9981 -0.0497
vn -0.2763 -0.9169 -0.2880
# 97 vertex normals

vt 0.0335 0.9613 0.0000
vt 0.0397 0.9628 0.0000
vt 0.0494 0.9690 0.0000
vt 0.0514 0.9731 0.0000
vt 0.0542 0.9739 0.0000
vt 0.0468 0.9764 0.0000
vt 0.0450 0.9759 0.0000
vt 0.0284 0.9624 0.0000
vt 0.0401 0.9865 0.0000
vt 0.0427 0.9883 0.0000
vt 0.0369 0.9871 0.0000
vt 0.0118 0.9628 0.0000
vt 0.0093 0.9654 0.0000
vt 0.0048 0.9650 0.0000
vt -0.9571 -0.1047 0.0000
vt -0.9570 -0.1048 0.0000
vt -0.9570 -0.1054 0.0000
vt -0.9570 -0.1046 0.0000
vt -0.9536 -0.1048 0.0000
vt -0.9537 -0.1049 0.0000
vt -0.9574 -0.1048 0.0000
vt -0.9538 -0.1052 0.0000
vt 0.0434 0.8404 0.0000
vt 0.0579 0.8384 0.0000
vt 0.0543 0.8485 0.0000
vt -0.9763 0.8980 0.0000
vt -0.9755 0.8996 0.0000
vt -0.9762 0.9029 0.0000
vt -0.9777 0.8899 0.0000
vt -0.9795 0.9031 0.0000
vt -0.9807 0.8890 0.0000
vt -0.9881 0.9030 0.0000
vt -0.9875 0.9008 0.0000
vt -0.9833 0.8988 0.0000
vt -0.9809 0.8970 0.0000
vt -0.9798 0.8944 0.0000
vt -0.9801 0.8986 0.0000
vt -0.9782 0.8942 0.0000
vt -0.9788 0.8984 0.0000
vt -0.9771 0.8951 0.0000
vt -0.9550 -0.1039 0.0000
vt -0.9556 -0.1038 0.0000
vt -0.9554 -0.1030 0.0000
vt -0.9552 -0.1030 0.0000
vt -0.9554 -0.1022 0.0000
vt -0.9552 -0.1021 0.0000
vt 0.0428 0.8434 0.0000
vt 0.0423 0.8406 0.0000
vt 0.0573 0.8408 0.0000
vt 0.0502 0.8470 0.0000
vt 0.0063 0.9749 0.0000
vt 0.0023 0.9717 0.0000
vt 0.0087 0.9721 0.0000
vt 0.0112 0.9785 0.0000
vt 0.0089 0.9720 0.0000
vt 0.0031 0.9670 0.0000
vt 0.0167 0.9758 0.0000
vt 0.0020 0.9646 0.0000
vt 0.0340 0.9849 0.0000
vt 0.0338 0.9869 0.0000
vt 0.0012 0.9631 0.0000
vt 0.0004 0.9614 0.0000
vt 0.0050 0.9626 0.0000
vt 0.0071 0.9594 0.0000
vt 0.0280 0.9617 0.0000
vt 0.0335 0.9607 0.0000
vt 0.0405 0.9626 0.0000
vt 0.0521 0.9697 0.0000
vt -1.5115 0.5541 0.0000
vt -1.5116 0.5823 0.0000
vt -1.5752 0.5823 0.0000
vt -1.5815 0.5541 0.0000
vt -1.5751 0.5259 0.0000
vt -1.5115 0.5260 0.0000
vt 0.4179 0.5580 0.0000
vt 0.4177 0.5266 0.0000
vt 0.4890 0.5188 0.0000
vt 0.4944 0.5552 0.0000
vt 0.4890 0.5907 0.0000
vt 0.4181 0.5893 0.0000
vt -0.9539 -0.1060 0.0000
vt -0.9538 -0.1056 0.0000
vt -0.9539 -0.1057 0.0000
vt -0.9539 -0.1059 0.0000
vt -0.9539 -0.1058 0.0000
vt -0.9538 -0.1060 0.0000
vt -0.9538 -0.1059 0.0000
vt 0.0331 0.9929 0.0000
vt 0.0237 0.9866 0.0000
vt 0.0269 0.9837 0.0000
vt 0.0176 0.9777 0.0000
vt 0.0145 0.9804 0.0000
vt 0.0168 0.9820 0.0000
vt -0.9545 -0.1048 0.0000
vt -0.9544 -0.1055 0.0000
vt -0.9542 -0.1055 0.0000
vt -0.9541 -0.1050 0.0000
vt -0.9540 -0.1055 0.0000
vt -0.9538 -0.1049 0.0000
vt -0.9539 -0.1055 0.0000
vt -0.9538 -0.1055 0.0000
vt 1.0044 0.8979 0.0000
vt 1.0050 0.8868 0.0000
vt 1.0050 0.8757 0.0000
vt 1.0044 0.8868 0.0000
vt 0.4159 0.5222 0.0000
vt 0.4892 0.5209 0.0000
vt 0.4940 0.5517 0.0000
vt 0.4173 0.5557 0.0000
vt 0.4239 0.5877 0.0000
vt 0.4937 0.5826 0.0000
vt -0.5837 1.5572 0.0000
vt -0.5840 1.5292 0.0000
vt -0.5132 1.5367 0.0000
vt -0.5110 1.5735 0.0000
vt -0.5834 1.5853 0.0000
vt 0.0202 0.9843 0.0000
vt 0.0568 0.8471 0.0000
vt 0.0423 0.8434 0.0000
vt 0.0548 0.8369 0.0000
vt -0.9747 0.9054 0.0000
vt -0.9743 0.9081 0.0000
vt -0.9661 0.9087 0.0000
vt -0.9669 0.8865 0.0000
vt -0.9739 0.9022 0.0000
vt -0.9690 0.9009 0.0000
vt -0.9673 0.8985 0.0000
vt -0.9667 0.8961 0.0000
vt -0.9659 0.8966 0.0000
vt -0.9659 0.8973 0.0000
vt -0.9648 0.8974 0.0000
vt -0.9646 0.8968 0.0000
vt -0.9636 0.8860 0.0000
vt -0.9620 0.9099 0.0000
vt -0.9620 0.9047 0.0000
vt -0.9630 0.9013 0.0000
vt 0.0203 0.9022 0.0000
vt 0.0192 0.8455 0.0000
vt 0.0191 0.8464 0.0000
vt 0.0203 0.9024 0.0000
vt 0.0190 0.8472 0.0000
vt 0.0203 0.9026 0.0000
vt 0.0202 0.9035 0.0000
vt 0.0189 0.8462 0.0000
vt 0.0202 0.9034 0.0000
vt 0.0200 0.9029 0.0000
vt 0.0189 0.8458 0.0000
vt 0.0188 0.8455 0.0000
vt 0.0200 0.9022 0.0000
vt -0.9551 -0.1061 0.0000
vt -0.9545 -0.1060 0.0000
vt -0.9541 -0.1060 0.0000
vt -0.9540 -0.1061 0.0000
vt 0.4890 0.5925 0.0000
vt 0.4944 0.5586 0.0000
vt 0.4867 0.5193 0.0000
vt -0.9570 -0.1052 0.0000
vt -0.9570 -0.1050 0.0000
vt -0.9570 -0.1061 0.0000
vt -0.9570 -0.1059 0.0000
vt -0.9570 -0.1060 0.0000
vt -0.9568 -0.1061 0.0000
vt -0.9568 -0.1053 0.0000
vt -0.9569 -0.1045 0.0000
vt -0.9577 -0.1050 0.0000
vt -0.9581 -0.1048 0.0000
vt -0.9587 -0.1039 0.0000
vt -0.9592 -0.1038 0.0000
vt -0.9552 -0.1037 0.0000
vt -0.9552 -0.1022 0.0000
vt -0.9554 -0.1023 0.0000
vt -0.9553 -0.1036 0.0000
vt -0.9554 -0.1045 0.0000
vt -0.9553 -0.1045 0.0000
vt -0.9534 -0.1061 0.0000
vt -0.9534 -0.1050 0.0000
vt -0.9600 -0.1263 0.0000
vt -0.9535 -0.1050 0.0000
vt 1.1138 0.8150 0.0000
vt 1.1327 0.8164 0.0000
vt 1.1553 0.8150 0.0000
vt 1.1290 0.8135 0.0000
vt 1.0949 0.8135 0.0000
vt 1.0800 0.8153 0.0000
vt 1.0913 0.8164 0.0000
vt 1.0077 0.8979 0.0000
vt 1.0107 0.8979 0.0000
vt 1.0085 0.8757 0.0000
# 188 texture coords

g Foot
usemtl Material__25
s 1
f 1/1/1 2/2/2 3/3/3 
f 4/4/4 1/1/1 3/3/3 
f 5/5/5 4/4/4 3/3/3 
f 6/6/6 4/4/4 5/5/5 
f 7/7/7 4/4/4 6/6/6 
f 1/1/1 4/4/4 7/7/7 
f 8/8/8 1/1/1 7/7/7 
f 9/9/9 8/8/8 7/7/7 
f 6/6/6 9/9/9 7/7/7 
f 10/10/10 9/9/9 6/6/6 
f 11/11/11 9/9/9 10/10/10 
f 12/12/12 8/8/8 9/9/9 
f 13/13/13 12/12/12 9/9/9 
f 14/14/14 13/13/13 9/9/9 
f 15/15/15 16/16/16 17/17/17 
f 18/18/18 15/15/15 17/17/17 
f 19/19/19 15/15/15 18/18/18 
f 20/20/20 19/19/19 18/18/18 
f 21/21/21 20/20/20 18/18/18 
f 22/22/22 20/20/20 21/21/21 
f 23/23/23 20/24/20 22/25/22 
f 24/26/24 25/27/25 26/28/26 
f 27/29/27 24/26/24 26/28/26 
f 28/30/28 27/29/27 26/28/26 
f 29/31/29 27/29/27 28/30/28 
f 30/32/30 29/31/29 28/30/28 
f 31/33/31 29/31/29 30/32/30 
f 32/34/32 29/31/29 31/33/31 
f 33/35/33 29/31/29 32/34/32 
f 34/36/34 29/31/29 33/35/33 
f 35/37/35 29/31/29 34/36/34 
f 36/38/36 35/37/35 34/36/34 
f 37/39/37 35/37/35 36/38/36 
f 27/29/27 37/39/37 36/38/36 
f 35/37/35 37/39/37 27/29/27 
f 29/31/29 35/37/35 27/29/27 
f 38/40/38 24/26/24 27/29/27 
f 36/38/36 38/40/38 27/29/27 
f 32/41/32 39/42/39 40/43/40 
f 33/44/33 32/41/32 40/43/40 
f 41/45/41 33/44/33 40/43/40 
f 34/46/34 33/44/33 41/45/41 
f 42/47/42 43/48/43 44/49/44 
f 15/50/15 42/47/42 44/49/44 
f 45/51/45 46/52/46 47/53/47 
f 48/54/48 45/51/45 47/53/47 
f 23/55/23 48/54/48 47/53/47 
f 49/56/49 23/55/23 47/53/47 
f 50/57/50 23/55/23 49/56/49 
f 51/58/51 50/57/50 49/56/49 
f 52/59/52 50/57/50 51/58/51 
f 53/60/53 50/57/50 52/59/52 
f 11/11/11 53/60/53 52/59/52 
f 9/9/9 11/11/11 52/59/52 
f 51/58/51 9/9/9 52/59/52 
f 14/14/14 9/9/9 51/58/51 
f 54/61/54 14/14/14 51/58/51 
f 55/62/55 14/14/14 54/61/54 
f 13/13/13 14/14/14 55/62/55 
f 56/63/56 13/13/13 55/62/55 
f 57/64/57 13/13/13 56/63/56 
f 12/12/12 13/13/13 57/64/57 
f 28/65/28 12/12/12 57/64/57 
f 8/8/8 12/12/12 28/65/28 
f 26/66/26 8/8/8 28/65/28 
f 1/1/1 8/8/8 26/66/26 
f 25/67/25 1/1/1 26/66/26 
f 2/2/2 1/1/1 25/67/25 
f 3/3/3 2/2/2 25/67/25 
f 58/68/58 3/3/3 25/67/25 
f 5/5/5 3/3/3 58/68/58 
f 59/69/59 54/70/54 60/71/60 
f 61/72/61 59/69/59 60/71/60 
f 62/73/62 59/69/59 61/72/61 
f 49/74/49 59/69/59 62/73/62 
f 63/75/63 64/76/64 65/77/65 
f 20/78/20 63/75/63 65/77/65 
f 23/79/23 63/75/63 20/78/20 
f 48/80/66 63/75/63 23/79/66 
f 66/81/67 62/82/62 61/83/61 
f 60/84/60 66/81/67 61/83/61 
f 54/85/54 66/81/67 60/84/60 
f 51/81/51 66/81/67 54/85/54 
f 62/86/62 66/81/67 51/81/51 
f 49/87/49 62/86/62 51/81/51 
f 67/88/68 43/89/43 42/90/42 
f 53/60/53 67/88/68 42/90/42 
f 50/57/50 53/60/53 42/90/42 
f 65/91/65 50/57/50 42/90/42 
f 23/55/23 50/57/50 65/91/65 
f 68/92/69 23/55/23 65/91/65 
f 64/93/64 68/92/69 65/91/65 
f 31/94/31 30/95/30 69/96/70 
f 70/97/71 31/94/31 69/96/70 
f 71/98/72 70/97/71 69/96/70 
f 21/99/21 70/97/71 71/98/72 
f 59/100/59 21/99/21 71/98/72 
f 22/22/22 21/99/21 59/100/59 
f 49/101/49 22/22/22 59/100/59 
f 72/102/73 64/103/64 73/104/74 
f 43/105/43 72/102/73 73/104/74 
f 48/106/48 23/107/23 22/108/22 
f 45/109/45 48/106/48 22/108/22 
f 46/110/46 45/109/45 22/108/22 
f 49/111/49 46/110/46 22/108/22 
f 74/112/75 75/113/76 16/114/16 
f 15/115/15 74/112/75 16/114/16 
f 44/116/44 74/112/75 15/115/15 
f 42/90/77 43/89/77 73/117/74 
f 65/91/65 42/90/42 73/117/74 
f 64/93/78 65/91/78 73/117/74 
f 19/118/19 42/119/42 15/120/15 
f 76/121/79 10/122/10 6/123/6 
f 77/124/80 76/121/79 6/123/6 
f 78/125/81 76/121/79 77/124/80 
f 39/126/39 78/125/81 77/124/80 
f 40/127/40 39/126/39 77/124/80 
f 41/128/41 40/127/40 77/124/80 
f 79/129/82 41/128/41 77/124/80 
f 80/130/83 79/129/82 77/124/80 
f 81/131/84 80/130/83 77/124/80 
f 79/129/82 80/130/83 81/131/84 
f 82/132/85 79/129/82 81/131/84 
f 83/133/86 82/132/85 81/131/84 
f 77/124/80 83/133/86 81/131/84 
f 6/123/6 83/133/86 77/124/80 
f 5/134/5 83/133/86 6/123/6 
f 58/135/58 83/133/86 5/134/5 
f 84/136/87 83/133/86 58/135/58 
f 82/132/85 83/133/86 84/136/87 
f 63/102/63 48/103/48 68/104/69 
f 64/105/64 63/102/63 68/104/69 
f 34/137/34 85/138/88 86/139/89 
f 36/140/36 34/137/34 86/139/89 
f 87/141/90 36/140/36 86/139/89 
f 38/142/38 36/140/36 87/141/90 
f 88/141/91 38/142/38 87/141/90 
f 82/143/85 38/142/38 88/141/91 
f 89/144/92 82/143/85 88/141/91 
f 79/145/82 82/143/85 89/144/92 
f 41/146/41 79/145/82 89/144/92 
f 90/147/93 41/146/41 89/144/92 
f 85/148/88 41/146/41 90/147/93 
f 34/149/34 41/146/41 85/148/88 
f 30/95/30 28/150/28 57/151/57 
f 56/152/56 30/95/30 57/151/57 
f 69/96/70 30/95/30 56/152/56 
f 55/153/55 69/96/70 56/152/56 
f 71/98/72 69/96/70 55/153/55 
f 59/100/59 71/98/72 55/153/55 
f 54/85/54 59/100/59 55/153/55 
f 65/154/94 64/80/94 72/75/73 
f 19/155/19 65/154/65 72/75/73 
f 42/156/42 19/155/19 72/75/73 
f 43/76/95 42/156/95 72/75/73 
f 16/157/16 75/158/76 67/159/68 
f 53/160/53 16/157/16 67/159/68 
f 11/161/11 16/157/16 53/160/53 
f 17/17/17 16/157/16 11/161/11 
f 10/162/10 17/17/17 11/161/11 
f 76/163/79 17/17/17 10/162/10 
f 78/164/81 17/17/17 76/163/79 
f 18/18/18 17/17/17 78/164/81 
f 21/21/21 18/18/18 78/164/81 
f 70/165/71 21/21/21 78/164/81 
f 31/166/31 70/165/71 78/164/81 
f 32/167/32 31/166/31 78/164/81 
f 39/168/39 32/167/32 78/164/81 
f 24/169/24 38/170/38 82/171/85 
f 84/172/87 24/169/24 82/171/85 
f 58/173/58 24/169/24 84/172/87 
f 25/174/25 24/169/24 58/173/58 
f 67/175/68 75/176/76 74/176/75 
f 43/177/43 67/175/68 74/176/75 
f 44/178/44 43/177/43 74/176/75 
f 91/179/96 88/180/91 87/181/90 
f 86/182/89 91/179/96 87/181/90 
f 85/183/88 91/179/96 86/182/89 
f 90/184/93 91/179/96 85/183/88 
f 89/185/92 91/179/96 90/184/93 
f 88/180/91 91/179/96 89/185/92 
f 46/186/46 49/187/49 47/188/47 
f 20/118/20 65/119/65 19/120/19 
f 48/54/97 23/55/97 68/92/69 
# 0 polygons - 184 triangles

