# 3ds Max Wavefront OBJ Exporter v0.97b - (c)2007 guruware
# File Created: 15.06.2016 23:15:20

mtllib Pants.mtl

#
# object Pants
#

v  -1.1347 -0.0796 -0.1216
v  -2.3561 -1.2772 3.8142
v  -3.5048 -2.0328 0.7414
v  -0.0058 0.0894 1.3004
v  -7.4074 0.1847 -0.3098
v  -5.6933 -1.7564 2.5583
v  -6.5367 -0.1706 3.3361
v  -7.1473 -1.7832 -1.4348
v  -4.6117 -1.9644 -2.0839
v  -2.3228 -0.1612 -2.2400
v  -6.6023 3.7268 -8.8980
v  -3.4878 0.9417 -7.3328
v  -3.8686 1.9886 -9.3388
v  -5.8298 2.6497 -6.8340
v  -9.4479 3.2015 -8.4904
v  -8.2395 2.1797 -6.0232
v  -11.4299 1.9543 -8.5419
v  -9.7428 0.9968 -6.2777
v  -6.9566 1.7267 -2.9713
v  -8.2966 0.5127 -2.9502
v  -3.8033 3.1794 10.8411
v  -0.8848 3.0558 9.8322
v  -3.8145 2.7813 9.7325
v  -1.1085 3.3398 10.9032
v  1.6137 3.1794 10.8411
v  2.0867 2.7813 9.7325
v  -6.8355 4.8255 -10.4484
v  -4.1806 2.6807 -10.9032
v  -6.3373 1.2329 -0.1169
v  -4.3714 1.3749 -0.6063
v  -5.0589 1.9967 -4.0453
v  -2.9897 0.3745 -4.6754
v  -0.1820 -1.3664 6.1923
v  -1.8813 -0.8141 7.6620
v  -1.5667 -1.2809 6.4343
v  -0.3791 -1.0118 7.4116
v  1.0201 -0.8141 7.6620
v  1.1813 -1.2808 6.4342
v  -5.2779 1.9127 10.0910
v  -5.3099 1.6580 9.1667
v  -4.0616 0.0853 7.7861
v  -4.5228 0.7815 9.1198
v  -8.7127 -0.7396 -4.9413
v  -9.6318 -0.3521 -7.0450
v  -8.7025 -0.5317 -3.6224
v  -8.5963 -0.4570 -3.6513
v  -6.5413 -0.2634 -4.1064
v  -11.3307 0.7555 -9.4444
v  -12.1403 2.6606 -9.9399
v  4.8346 4.6585 -10.2502
v  2.3278 1.9595 -9.2855
v  5.2481 3.6955 -8.8412
v  1.9872 2.6520 -10.8499
v  10.3504 2.6271 -9.8809
v  8.2637 3.1686 -8.4320
v  10.2230 1.9208 -8.4833
v  8.3896 4.0177 -9.7439
v  2.7668 0.3705 -4.6754
v  4.6032 -1.9684 -2.0814
v  2.3114 -0.1644 -2.2406
v  3.6114 -1.0804 -3.4850
v  3.9145 -1.0282 -4.7003
v  9.0361 -0.3591 -7.0406
v  9.3809 0.9910 -6.2719
v  9.7368 0.1270 -7.9342
v  3.4017 1.9127 10.0910
v  3.8185 1.6580 9.1667
v  3.1470 0.0853 7.7861
v  3.0525 0.7815 9.1198
v  8.4655 -0.7452 -4.9375
v  8.5704 -0.5377 -3.6183
v  8.2244 0.5070 -2.9471
v  8.4618 -0.4629 -3.6472
v  -5.5964 0.4680 -10.3155
v  -6.8293 -0.9586 -9.4261
v  6.3317 1.2290 -0.1165
v  7.4006 0.1805 -0.3077
v  6.8839 1.7215 -2.9693
v  4.3662 1.3715 -0.6072
v  4.8928 1.9921 -4.0442
v  7.1386 -1.7879 -1.4308
v  8.1343 -0.8268 -2.0111
v  4.7858 -0.0888 6.4913
v  5.6481 -1.7582 2.5613
v  6.4249 -0.1726 3.3380
v  3.5125 -0.8832 6.2533
v  3.4934 -2.0347 0.7431
v  2.2005 -1.2775 3.8139
v  -6.1073 -1.7848 -5.3757
v  -6.2498 -1.4131 -7.3606
v  -5.2621 -0.8085 -7.5526
v  -8.2835 -1.5748 -4.9045
v  -8.4342 -1.7546 -3.6781
v  -5.4377 -1.9803 -4.3062
v  -8.0116 -1.7960 -2.5754
v  -5.0243 -2.0004 -3.1867
v  4.1362 -0.2935 -8.7615
v  2.7726 0.9377 -7.3316
v  4.4531 -0.8127 -7.5518
v  4.8106 -1.2449 -5.6973
v  -9.0603 -1.2592 -6.8913
v  -9.9705 -1.2113 -7.5678
v  -6.3411 -1.4407 -8.1637
v  -0.0473 -0.3314 3.1189
v  1.1259 -0.0811 -0.1237
v  3.5076 1.2928 1.1714
v  2.5148 1.4689 3.0684
v  5.0830 1.1158 3.1847
v  3.9615 1.0952 6.0919
v  7.9011 2.1741 -6.0185
v  5.3251 2.6438 -6.8309
v  9.7454 0.7230 -9.3872
v  -10.5892 -0.8563 -8.8067
v  -5.4277 -0.3402 -8.6523
v  -10.1209 4.0507 -9.8028
v  -3.7324 -1.0762 -3.4861
v  -4.1412 -1.0239 -4.7010
v  -8.1414 -0.8216 -2.0149
v  -0.0494 -1.3722 3.1662
v  -10.7159 0.1597 -7.9912
v  -4.3157 1.0956 6.0925
v  -5.1762 -0.0885 6.4904
v  -2.5661 2.6066 8.3361
v  -0.6277 2.8192 8.6017
v  1.4217 2.6066 8.3361
v  -5.1245 -1.2406 -5.6983
v  -3.8824 -0.8831 6.2528
v  3.6250 0.4680 -10.3155
v  -0.0456 1.1477 3.0904
v  -2.6038 1.4694 3.0696
v  -0.1641 2.0311 5.7909
v  -2.1759 1.9543 5.7011
v  1.8557 1.9542 5.7000
v  6.3672 -0.2686 -4.1035
v  9.2482 -0.8563 -8.8067
v  5.8210 -1.7895 -5.3745
v  5.2444 -1.9850 -4.3054
v  4.9283 -2.0050 -3.1843
v  7.9693 -1.8017 -2.5711
v  8.2960 -1.7604 -3.6752
v  8.0385 -1.5803 -4.9016
v  5.2294 -0.9586 -9.4261
v  -3.5153 1.2947 1.1733
v  -5.1797 1.1177 3.1854
v  5.5206 -1.4177 -7.3595
v  5.3164 -1.2605 -8.2619
v  9.1471 -1.2113 -7.5678
v  8.5276 -1.2656 -6.8881
# 148 vertices

vn 0.8831 0.0331 -0.4681
vn 0.0808 -0.9967 -0.0004
vn 0.2906 -0.9565 -0.0263
vn -0.0087 0.0253 -0.9996
vn -0.9240 0.1922 0.3306
vn -0.4492 -0.8635 0.2291
vn -0.9420 0.0823 0.3255
vn -0.5249 -0.8003 0.2899
vn 0.2836 -0.9541 -0.0960
vn 0.9331 0.0004 -0.3596
vn 0.2333 0.8468 0.4781
vn 0.9844 0.0521 -0.1679
vn 0.9848 0.1519 -0.0847
vn 0.2960 0.9216 0.2509
vn -0.2762 0.7857 0.5535
vn -0.3379 0.8487 0.4067
vn -0.7950 0.2276 0.5623
vn -0.8364 0.1649 0.5227
vn -0.3397 0.9054 0.2547
vn -0.8360 0.3860 0.3899
vn -0.1836 0.4706 0.8630
vn -0.0016 0.9728 -0.2317
vn -0.3366 0.8784 -0.3392
vn -0.0170 0.3707 0.9286
vn 0.0593 0.4403 0.8959
vn 0.3648 0.9116 -0.1894
vn -0.2802 0.7559 -0.5917
vn 0.4157 0.2461 -0.8756
vn -0.4091 0.8858 0.2191
vn 0.2263 0.9740 0.0128
vn 0.3095 0.9446 0.1092
vn 0.9740 0.0964 -0.2049
vn 0.0011 -0.9890 0.1480
vn 0.2729 -0.2769 0.9213
vn -0.1139 -0.9699 0.2154
vn -0.0089 -0.0283 0.9996
vn -0.3676 -0.2668 0.8909
vn 0.1283 -0.9607 0.2462
vn -0.6604 0.0180 0.7507
vn -0.9895 0.1304 -0.0620
vn -0.3671 -0.8316 0.4167
vn -0.0504 -0.6578 0.7515
vn -0.9031 -0.4097 0.1289
vn -0.8002 -0.3331 0.4987
vn -0.8947 0.2727 0.3537
vn -0.7510 0.4749 0.4588
vn -0.2497 0.2578 -0.9334
vn -0.3343 -0.4230 -0.8422
vn -0.6446 0.4102 -0.6452
vn 0.0918 0.7941 -0.6008
vn -0.9609 0.0583 0.2705
vn -0.2089 0.8155 0.5398
vn -0.6005 0.2701 -0.7526
vn 0.5060 0.4176 -0.7547
vn 0.3047 0.8282 0.4705
vn 0.9200 0.2625 0.2912
vn 0.1156 0.6956 -0.7090
vn -0.9925 0.0821 -0.0910
vn -0.2772 -0.9575 -0.0792
vn -0.9460 -0.0065 -0.3240
vn -0.8479 -0.4885 0.2061
vn -0.6460 -0.6942 -0.3174
vn 0.8779 -0.3640 0.3112
vn 0.9198 0.1728 0.3524
vn 0.9323 -0.2658 0.2451
vn 0.4809 0.0154 0.8766
vn 0.9331 0.2207 0.2839
vn 0.3431 -0.7763 0.5289
vn -0.0588 -0.6289 0.7753
vn 0.9086 -0.4168 0.0258
vn 0.9396 0.0012 0.3424
vn 0.8451 0.3977 0.3574
vn 0.3272 0.0344 0.9443
vn -0.2484 -0.1412 -0.9583
vn -0.3008 -0.2410 -0.9227
vn 0.4138 0.8828 0.2223
vn 0.9242 0.1935 0.3294
vn 0.3474 0.9066 0.2395
vn -0.2242 0.9744 0.0186
vn -0.3033 0.9427 0.1390
vn 0.5288 -0.7978 0.2898
vn 0.6286 0.1824 0.7560
vn 0.8428 -0.2091 0.4959
vn 0.4559 -0.8546 0.2486
vn 0.9245 0.0853 0.3715
vn 0.2401 -0.8854 0.3981
vn -0.2851 -0.9580 -0.0316
vn -0.0824 -0.9966 -0.0041
vn 0.1041 -0.9691 -0.2236
vn 0.2297 -0.9690 -0.0915
vn 0.6174 -0.7393 -0.2688
vn -0.5159 -0.8518 -0.0904
vn -0.6706 -0.7402 0.0492
vn 0.2257 -0.9574 -0.1804
vn -0.5599 -0.7824 0.2727
vn 0.2524 -0.9637 -0.0865
vn -0.6616 -0.7330 -0.1580
vn -0.9915 0.0062 0.1303
vn -0.6210 -0.7783 -0.0924
vn -0.5393 -0.8151 -0.2116
vn -0.4631 -0.8632 0.2009
vn -0.5552 -0.7412 0.3773
vn 0.2789 -0.9328 -0.2284
vn -0.0803 0.1599 0.9839
vn -0.8799 0.0364 -0.4738
vn -0.1500 0.9834 -0.1021
vn -0.0046 0.9848 -0.1736
vn 0.4122 0.8950 0.1704
vn 0.5822 0.8129 0.0177
vn 0.3650 0.8614 0.3533
vn -0.2544 0.9072 0.3352
vn 0.1164 -0.3321 -0.9361
vn -0.5076 -0.4921 -0.7073
vn 0.6555 -0.6458 -0.3914
vn -0.2598 0.6993 -0.6660
vn 0.8639 -0.4806 0.1510
vn 0.6319 -0.6835 -0.3654
vn -0.5982 0.1854 0.7796
vn 0.0004 -0.9283 -0.3717
vn -0.8259 -0.2456 0.5076
vn -0.5742 0.8113 -0.1098
vn -0.8977 -0.2783 0.3415
vn -0.2129 0.9389 -0.2704
vn 0.0024 0.9762 -0.2169
vn 0.2188 0.9538 -0.2057
vn 0.5275 -0.7934 -0.3038
vn -0.2432 -0.9008 0.3597
vn 0.0262 -0.2741 -0.9613
vn -0.0007 0.9097 -0.4152
vn 0.0064 0.9841 -0.1775
vn 0.0018 0.9666 -0.2564
vn -0.2029 0.9568 -0.2081
vn 0.2145 0.9625 -0.1663
vn 0.0563 0.2592 -0.9642
vn 0.2935 -0.4764 -0.8288
vn -0.0930 -0.9733 -0.2098
vn -0.2296 -0.9596 -0.1629
vn -0.2536 -0.9651 -0.0657
vn 0.5770 -0.7800 0.2422
vn 0.6742 -0.7385 -0.0038
vn 0.5169 -0.8441 -0.1421
vn 0.1445 -0.3400 -0.9293
vn 0.1528 0.9830 -0.1019
vn -0.4105 0.9003 0.1449
vn -0.2092 -0.9697 -0.1265
vn -0.2707 -0.9443 -0.1870
vn 0.6347 -0.7472 0.1970
vn 0.4995 -0.8585 0.1163
# 148 vertex normals

vt 0.9648 0.6866 0.0000
vt 0.8674 0.7695 0.0000
vt 0.8661 0.6866 0.0000
vt 0.9648 0.7696 0.0000
vt 0.6741 0.6896 0.0000
vt 0.7758 0.7694 0.0000
vt 0.6742 0.7696 0.0000
vt 0.7745 0.6887 0.0000
vt 0.8720 0.6889 0.0000
vt 0.8655 0.7688 0.0000
vt 0.9651 0.7687 0.0000
vt 0.9786 0.6894 0.0000
vt 0.8409 0.6885 0.0000
vt 0.9935 0.7689 0.0000
vt 0.9933 0.6885 0.0000
vt 0.8172 0.7689 0.0000
vt 0.7996 0.6885 0.0000
vt 0.7676 0.7689 0.0000
vt 0.5949 0.6885 0.0000
vt 0.5967 0.7689 0.0000
vt 0.7560 0.6885 0.0000
vt 0.5945 0.6885 0.0000
vt 0.7479 0.3860 0.0000
vt 0.7479 0.2938 0.0000
vt 0.7479 0.2943 0.0000
vt 0.7479 0.3855 0.0000
vt 0.8407 0.0809 0.0000
vt 0.8425 0.0032 0.0000
vt 0.8423 0.0813 0.0000
vt 0.8404 0.0032 0.0000
vt 0.7567 0.7677 0.0000
vt 0.5942 0.6872 0.0000
vt 0.5927 0.7677 0.0000
vt 0.7558 0.6872 0.0000
vt 0.8145 0.7677 0.0000
vt 0.8159 0.6872 0.0000
vt 0.9940 0.7677 0.0000
vt 0.9942 0.6872 0.0000
vt 0.8941 0.2922 0.0000
vt 0.9742 0.3909 0.0000
vt 0.9726 0.2919 0.0000
vt 0.8906 0.3910 0.0000
vt 0.8056 0.3910 0.0000
vt 0.8057 0.2922 0.0000
vt 0.7479 0.2945 0.0000
vt 0.7479 0.3858 0.0000
vt 0.7479 0.2944 0.0000
vt 0.8158 0.2914 0.0000
vt 0.8159 0.3886 0.0000
vt 0.7821 0.7124 0.0000
vt 0.6742 0.7693 0.0000
vt 0.7817 0.7689 0.0000
vt 0.7260 0.6860 0.0000
vt 0.7159 0.6861 0.0000
vt 0.6742 0.6859 0.0000
vt 0.7951 0.3304 0.0000
vt 0.7569 0.3352 0.0000
vt 0.7568 0.3239 0.0000
vt 0.8425 0.0838 0.0000
vt 0.8404 0.0838 0.0000
vt 0.9645 0.7695 0.0000
vt 0.8735 0.6872 0.0000
vt 0.9645 0.6873 0.0000
vt 0.8996 0.7338 0.0000
vt 0.8942 0.7681 0.0000
vt 0.7583 0.6881 0.0000
vt 0.6742 0.7809 0.0000
vt 0.6742 0.6878 0.0000
vt 0.7534 0.7811 0.0000
vt 0.7906 0.6868 0.0000
vt 0.6738 0.7712 0.0000
vt 0.6737 0.6868 0.0000
vt 0.7301 0.7218 0.0000
vt 0.7283 0.7708 0.0000
vt 0.7336 0.7709 0.0000
vt 0.5774 0.6666 0.0000
vt 0.6735 0.5598 0.0000
vt 0.6742 0.6699 0.0000
vt 0.5679 0.6217 0.0000
vt 0.6732 0.5101 0.0000
vt 0.5838 0.5092 0.0000
vt 0.5046 0.5096 0.0000
vt 0.5061 0.6067 0.0000
vt 0.5049 0.6635 0.0000
vt 0.9043 0.9021 0.0000
vt 0.9281 0.8817 0.0000
vt 0.9752 0.8822 0.0000
vt 0.7039 0.9023 0.0000
vt 0.6559 0.9284 0.0000
vt 0.9332 0.9291 0.0000
vt 0.6266 0.9544 0.0000
vt 0.9328 0.9578 0.0000
vt 0.9645 0.7694 0.0000
vt 0.8709 0.7410 0.0000
vt 0.9057 0.7694 0.0000
vt 0.9645 0.6868 0.0000
vt 0.8632 0.6868 0.0000
vt 0.7124 0.8786 0.0000
vt 0.7153 0.8427 0.0000
vt 0.8961 0.8471 0.0000
vt 0.7304 0.3600 0.0000
vt 0.8091 0.3596 0.0000
vt 0.9958 0.6885 0.0000
vt 0.8148 0.7689 0.0000
vt 0.9943 0.7689 0.0000
vt 0.8204 0.6885 0.0000
vt 0.9972 0.7689 0.0000
vt 0.8199 0.7689 0.0000
vt 0.7532 0.6885 0.0000
vt 0.7585 0.7689 0.0000
vt 0.5945 0.7689 0.0000
vt 0.5940 0.6885 0.0000
vt 0.5929 0.7689 0.0000
vt 0.7570 0.7689 0.0000
vt 0.8397 0.0838 0.0000
vt 0.8397 0.0032 0.0000
vt 0.3948 -0.1624 0.0000
vt 0.4932 -0.3947 0.0000
vt 0.4121 -0.3958 0.0000
vt 0.4957 -0.1536 0.0000
vt 0.4973 -0.0048 0.0000
vt 0.0055 0.5135 0.0000
vt 0.2117 0.6361 0.0000
vt 0.1378 0.5085 0.0000
vt 0.1063 0.6861 0.0000
vt 0.0048 0.6597 0.0000
vt 0.0044 0.7721 0.0000
vt 0.0831 0.7721 0.0000
vt 0.9945 0.6885 0.0000
vt 0.8161 0.6885 0.0000
vt 0.9760 0.9021 0.0000
vt 0.9748 0.9316 0.0000
vt 0.9632 0.9762 0.0000
vt 0.8818 0.9808 0.0000
vt 0.6454 0.9834 0.0000
vt 0.5941 0.9535 0.0000
vt 0.5981 0.9301 0.0000
vt 0.6264 0.9014 0.0000
vt 0.6127 0.8745 0.0000
vt 0.6070 0.8511 0.0000
vt 0.6042 0.7846 0.0000
vt 0.7140 0.7849 0.0000
vt 0.9014 0.7851 0.0000
vt 0.9723 0.7880 0.0000
vt 0.9700 0.8479 0.0000
vt 0.2680 0.7721 0.0000
vt 0.3690 0.7720 0.0000
vt 0.3001 0.6662 0.0000
vt 0.1724 0.7721 0.0000
vt 0.1697 0.6911 0.0000
# 150 texture coords

g Pants
usemtl Material__25
s 1
f 1/1/1 2/2/2 3/3/3 
f 4/4/4 2/2/2 1/1/1 
f 5/5/5 6/6/6 7/7/7 
f 8/8/8 6/6/6 5/5/5 
f 9/9/9 6/6/6 8/8/8 
f 9/9/9 3/10/3 6/6/6 
f 9/9/9 1/11/1 3/10/3 
f 10/12/10 1/11/1 9/9/9 
f 11/13/11 12/14/12 13/15/13 
f 11/13/11 14/16/14 12/14/12 
f 15/17/15 14/16/14 11/13/11 
f 15/17/15 16/18/16 14/16/14 
f 17/19/17 16/18/16 15/17/15 
f 18/20/18 16/18/16 17/19/17 
f 18/20/18 19/21/19 16/18/16 
f 20/22/20 19/21/19 18/20/18 
f 21/23/21 22/24/22 23/25/23 
f 24/26/24 22/24/22 21/23/21 
f 25/23/25 22/24/22 24/26/24 
f 25/23/25 26/25/26 22/24/22 
f 13/27/13 27/28/27 11/29/11 
f 13/27/13 28/30/28 27/28/27 
f 29/31/29 20/32/20 5/33/5 
f 29/31/29 19/34/19 20/32/20 
f 30/35/30 19/34/19 29/31/29 
f 30/35/30 31/36/31 19/34/19 
f 10/37/10 31/36/31 30/35/30 
f 10/37/10 32/38/32 31/36/31 
f 33/39/33 34/40/34 35/41/35 
f 33/39/33 36/42/36 34/40/34 
f 33/39/33 37/43/37 36/42/36 
f 38/44/38 37/43/37 33/39/33 
f 23/45/23 39/23/39 21/46/21 
f 40/47/40 39/23/39 23/45/23 
f 41/47/41 39/23/39 40/47/40 
f 41/47/41 42/23/42 39/23/39 
f 35/48/35 42/23/42 41/47/41 
f 35/48/35 34/49/34 42/23/42 
f 43/50/43 18/51/18 44/52/44 
f 45/53/45 18/51/18 43/50/43 
f 46/54/46 18/51/18 45/53/45 
f 46/54/46 20/55/20 18/51/18 
f 47/56/47 48/57/48 49/58/49 
f 50/28/50 51/27/51 52/29/52 
f 53/30/53 51/27/51 50/28/50 
f 54/30/54 55/59/55 56/60/56 
f 57/28/57 55/59/55 54/30/54 
f 58/61/58 59/62/59 60/63/60 
f 58/61/58 61/64/61 59/62/59 
f 62/65/62 61/64/61 58/61/58 
f 63/66/63 56/67/56 64/68/64 
f 65/69/65 56/67/56 63/66/63 
f 66/23/66 26/45/26 25/46/25 
f 66/23/66 67/47/67 26/45/26 
f 66/23/66 68/47/68 67/47/67 
f 69/23/69 68/47/68 66/23/66 
f 69/23/69 38/48/38 68/47/68 
f 37/49/37 38/48/38 69/23/69 
f 64/51/64 70/50/70 63/52/63 
f 64/51/64 71/53/71 70/50/70 
f 72/55/72 71/53/71 64/51/64 
f 72/55/72 73/54/73 71/53/71 
f 47/56/47 74/57/74 75/58/75 
f 72/32/72 76/31/76 77/33/77 
f 78/34/78 76/31/76 72/32/72 
f 78/34/78 79/35/79 76/31/76 
f 80/36/80 79/35/79 78/34/78 
f 80/36/80 60/37/60 79/35/79 
f 58/38/58 60/37/60 80/36/80 
f 81/70/81 72/71/72 77/72/77 
f 82/73/82 72/71/72 81/70/81 
f 82/73/82 73/74/73 72/71/72 
f 71/75/71 73/74/73 82/73/82 
f 83/76/83 84/77/84 85/78/85 
f 86/79/86 84/77/84 83/76/83 
f 86/79/86 87/80/87 84/77/84 
f 86/79/86 88/81/88 87/80/87 
f 86/79/86 38/82/38 88/81/88 
f 86/79/86 68/83/68 38/82/38 
f 83/76/83 68/83/68 86/79/86 
f 83/76/83 67/84/67 68/83/68 
f 89/85/89 90/86/90 91/87/91 
f 89/85/89 92/88/92 90/86/90 
f 89/85/89 93/89/93 92/88/92 
f 94/90/94 93/89/93 89/85/89 
f 94/90/94 95/91/95 93/89/93 
f 96/92/96 95/91/95 94/90/94 
f 97/9/97 98/11/98 51/12/51 
f 99/10/99 98/11/98 97/9/97 
f 58/93/58 100/94/100 62/95/62 
f 98/96/98 100/94/100 58/93/58 
f 98/96/98 99/97/99 100/94/100 
f 101/98/101 90/86/90 92/88/92 
f 102/99/102 90/86/90 101/98/101 
f 102/99/102 103/100/103 90/86/90 
f 24/101/24 104/102/104 25/101/25 
f 21/101/21 104/102/104 24/101/24 
f 39/101/39 104/102/104 21/101/21 
f 42/101/42 104/102/104 39/101/39 
f 34/101/34 104/102/104 42/101/42 
f 36/101/36 104/102/104 34/101/34 
f 37/101/37 104/102/104 36/101/36 
f 69/101/69 104/102/104 37/101/37 
f 66/101/66 104/102/104 69/101/69 
f 66/101/66 25/101/25 104/102/104 
f 47/56/47 28/57/28 74/58/74 
f 105/103/105 79/104/79 60/105/60 
f 105/103/105 106/106/106 79/104/79 
f 4/107/4 106/106/106 105/103/105 
f 107/108/107 106/106/106 4/107/4 
f 107/108/107 108/109/108 106/106/106 
f 109/110/109 108/109/108 107/108/107 
f 83/111/83 108/109/108 109/110/109 
f 85/112/85 108/109/108 83/111/83 
f 77/113/77 108/109/108 85/112/85 
f 76/114/76 108/109/108 77/113/77 
f 76/114/76 106/106/106 108/109/108 
f 79/104/79 106/106/106 76/114/76 
f 56/19/56 110/18/110 64/20/64 
f 55/17/55 110/18/110 56/19/56 
f 55/17/55 111/16/111 110/18/110 
f 52/13/52 111/16/111 55/17/55 
f 57/28/57 52/27/52 55/29/55 
f 50/30/50 52/27/52 57/28/57 
f 54/28/54 65/115/65 112/116/112 
f 56/59/56 65/115/65 54/28/54 
f 47/56/47 75/57/75 113/58/113 
f 114/115/114 28/28/28 13/59/13 
f 74/116/74 28/28/28 114/115/114 
f 15/59/15 49/30/49 17/60/17 
f 15/59/15 115/28/115 49/30/49 
f 9/62/9 32/61/32 10/63/10 
f 116/64/116 32/61/32 9/62/9 
f 116/64/116 117/65/117 32/61/32 
f 20/71/20 8/70/8 5/72/5 
f 20/71/20 118/73/118 8/70/8 
f 46/74/46 118/73/118 20/71/20 
f 46/74/46 45/75/45 118/73/118 
f 12/11/12 114/9/114 13/12/13 
f 91/10/91 114/9/114 12/11/12 
f 2/117/2 33/118/33 35/119/35 
f 2/117/2 119/120/119 33/118/33 
f 4/121/4 119/120/119 2/117/2 
f 88/117/88 119/120/119 4/121/4 
f 88/117/88 33/118/33 119/120/119 
f 38/119/38 33/118/33 88/117/88 
f 17/67/17 44/66/44 18/68/18 
f 120/69/120 44/66/44 17/67/17 
f 40/122/40 121/123/121 122/124/122 
f 40/122/40 123/125/123 121/123/121 
f 23/126/23 123/125/123 40/122/40 
f 22/127/22 123/125/123 23/126/23 
f 22/127/22 124/128/124 123/125/123 
f 22/127/22 125/125/125 124/128/124 
f 26/126/26 125/125/125 22/127/22 
f 67/122/67 125/125/125 26/126/26 
f 67/122/67 109/123/109 125/125/125 
f 83/124/83 109/123/109 67/122/67 
f 126/94/126 32/93/32 117/95/117 
f 126/94/126 12/96/12 32/93/32 
f 91/97/91 12/96/12 126/94/126 
f 84/6/84 77/5/77 85/7/85 
f 84/6/84 81/8/81 77/5/77 
f 84/6/84 59/9/59 81/8/81 
f 87/10/87 59/9/59 84/6/84 
f 105/11/105 59/9/59 87/10/87 
f 105/11/105 60/12/60 59/9/59 
f 6/77/6 122/76/122 7/78/7 
f 6/77/6 127/79/127 122/76/122 
f 3/80/3 127/79/127 6/77/6 
f 2/81/2 127/79/127 3/80/3 
f 35/82/35 127/79/127 2/81/2 
f 41/83/41 127/79/127 35/82/35 
f 41/83/41 122/76/122 127/79/127 
f 40/84/40 122/76/122 41/83/41 
f 88/2/88 105/1/105 87/3/87 
f 4/4/4 105/1/105 88/2/88 
f 98/14/98 52/13/52 51/15/51 
f 98/14/98 111/16/111 52/13/52 
f 58/129/58 111/16/111 98/14/98 
f 80/130/80 111/16/111 58/129/58 
f 80/130/80 110/18/110 111/16/111 
f 78/21/78 110/18/110 80/130/80 
f 78/21/78 64/20/64 110/18/110 
f 72/22/72 64/20/64 78/21/78 
f 53/28/53 97/115/97 51/59/51 
f 128/116/128 97/115/97 53/28/53 
f 47/56/47 113/57/113 48/58/48 
f 126/131/126 89/85/89 91/87/91 
f 126/131/126 94/90/94 89/85/89 
f 117/132/117 94/90/94 126/131/126 
f 117/132/117 96/92/96 94/90/94 
f 116/133/116 96/92/96 117/132/117 
f 9/134/9 96/92/96 116/133/116 
f 9/134/9 95/91/95 96/92/96 
f 8/135/8 95/91/95 9/134/9 
f 118/136/118 95/91/95 8/135/8 
f 118/136/118 93/89/93 95/91/95 
f 45/137/45 93/89/93 118/136/118 
f 43/138/43 93/89/93 45/137/45 
f 43/138/43 92/88/92 93/89/93 
f 43/138/43 101/98/101 92/88/92 
f 44/139/44 101/98/101 43/138/43 
f 120/140/120 101/98/101 44/139/44 
f 120/140/120 102/99/102 101/98/101 
f 48/141/48 102/99/102 120/140/120 
f 113/142/113 102/99/102 48/141/48 
f 113/142/113 103/100/103 102/99/102 
f 75/143/75 103/100/103 113/142/113 
f 74/144/74 103/100/103 75/143/75 
f 114/145/114 103/100/103 74/144/74 
f 91/87/91 103/100/103 114/145/114 
f 91/87/91 90/86/90 103/100/103 
f 129/146/129 4/147/4 130/148/130 
f 129/146/129 107/148/107 4/147/4 
f 129/146/129 131/149/131 107/148/107 
f 130/148/130 131/149/131 129/146/129 
f 130/148/130 132/150/132 131/149/131 
f 121/123/121 132/150/132 130/148/130 
f 123/125/123 132/150/132 121/123/121 
f 124/128/124 132/150/132 123/125/123 
f 124/128/124 131/149/131 132/150/132 
f 133/150/133 131/149/131 124/128/124 
f 133/150/133 107/148/107 131/149/131 
f 133/150/133 109/123/109 107/148/107 
f 133/150/133 125/125/125 109/123/109 
f 124/128/124 125/125/125 133/150/133 
f 47/56/47 27/57/27 28/58/28 
f 47/56/47 115/57/115 27/58/27 
f 47/56/47 49/57/49 115/58/115 
f 112/57/112 134/56/134 54/58/54 
f 135/57/135 134/56/134 112/58/112 
f 136/85/136 100/131/100 99/87/99 
f 137/90/137 100/131/100 136/85/136 
f 137/90/137 62/132/62 100/131/100 
f 138/92/138 62/132/62 137/90/137 
f 138/92/138 61/133/61 62/132/62 
f 138/92/138 59/134/59 61/133/61 
f 139/91/139 59/134/59 138/92/138 
f 139/91/139 81/135/81 59/134/59 
f 139/91/139 82/136/82 81/135/81 
f 140/89/140 82/136/82 139/91/139 
f 140/89/140 71/137/71 82/136/82 
f 140/89/140 70/138/70 71/137/71 
f 140/89/140 141/88/141 70/138/70 
f 140/89/140 136/85/136 141/88/141 
f 140/89/140 137/90/137 136/85/136 
f 139/91/139 137/90/137 140/89/140 
f 139/91/139 138/92/138 137/90/137 
f 142/57/142 134/56/134 135/58/135 
f 128/57/128 134/56/134 142/58/142 
f 53/57/53 134/56/134 128/58/128 
f 50/57/50 134/56/134 53/58/53 
f 30/104/30 1/103/1 10/105/10 
f 30/104/30 143/106/143 1/103/1 
f 29/114/29 143/106/143 30/104/30 
f 29/114/29 144/109/144 143/106/143 
f 5/113/5 144/109/144 29/114/29 
f 7/112/7 144/109/144 5/113/5 
f 122/111/122 144/109/144 7/112/7 
f 121/110/121 144/109/144 122/111/122 
f 130/108/130 144/109/144 121/110/121 
f 130/108/130 143/106/143 144/109/144 
f 4/107/4 143/106/143 130/108/130 
f 4/107/4 1/103/1 143/106/143 
f 14/16/14 32/129/32 12/14/12 
f 14/16/14 31/130/31 32/129/32 
f 16/18/16 31/130/31 14/16/14 
f 16/18/16 19/21/19 31/130/31 
f 11/27/11 115/28/115 15/29/15 
f 27/30/27 115/28/115 11/27/11 
f 120/115/120 49/28/49 48/116/48 
f 17/59/17 49/28/49 120/115/120 
f 136/85/136 145/86/145 141/88/141 
f 99/87/99 145/86/145 136/85/136 
f 99/87/99 146/100/146 145/86/145 
f 97/145/97 146/100/146 99/87/99 
f 128/144/128 146/100/146 97/145/97 
f 142/143/142 146/100/146 128/144/128 
f 135/142/135 146/100/146 142/143/142 
f 135/142/135 147/99/147 146/100/146 
f 112/141/112 147/99/147 135/142/135 
f 65/140/65 147/99/147 112/141/112 
f 65/140/65 148/98/148 147/99/147 
f 63/139/63 148/98/148 65/140/65 
f 70/138/70 148/98/148 63/139/63 
f 141/88/141 148/98/148 70/138/70 
f 145/86/145 148/98/148 141/88/141 
f 145/86/145 147/99/147 148/98/148 
f 146/100/146 147/99/147 145/86/145 
f 57/57/57 134/56/134 50/58/50 
f 54/57/54 134/56/134 57/58/57 
# 0 polygons - 292 triangles

